<svg version="1.1" id="Layer_1" xmlns="http://www.w3.org/2000/svg" xmlns:xlink="http://www.w3.org/1999/xlink" x="0px" y="0px"
	 width="100%" viewBox="0 0 1000 350" enable-background="new 0 0 1000 350" xml:space="preserve">
<path fill="#000000" opacity="1.000000" stroke="none" 
	d="
M716.000000,351.000000 
	C477.333405,351.000000 239.166840,351.000000 1.000192,351.000000 
	C1.000128,234.333466 1.000128,117.666924 1.000064,1.000286 
	C334.333099,1.000190 667.666199,1.000190 1000.999451,1.000095 
	C1000.999634,117.666382 1000.999634,234.332764 1000.999817,350.999573 
	C906.166687,351.000000 811.333313,351.000000 716.000000,351.000000 
M892.737122,178.042496 
	C892.818115,163.498672 892.908325,148.954865 892.945251,134.410934 
	C892.946716,133.844513 892.438110,133.276794 892.000854,131.873383 
	C886.728882,131.473236 881.456909,131.073105 875.803711,130.644028 
	C875.803711,142.213638 875.803711,152.894638 875.803711,164.478317 
	C867.594543,154.073318 859.990356,144.375946 852.297546,134.749390 
	C851.162964,133.329620 849.651672,131.233261 848.241150,131.173172 
	C840.167053,130.829163 832.070801,131.005966 824.241516,131.005966 
	C824.241516,147.733414 824.241516,163.795151 824.241516,179.699158 
	C829.664429,179.699158 834.741455,179.699158 840.222900,179.699158 
	C840.222900,169.074829 840.222900,158.748108 840.222900,147.825134 
	C843.768005,152.520660 846.905029,156.604080 849.963013,160.745911 
	C853.036621,164.909088 855.647034,169.497131 859.185852,173.207062 
	C861.881104,176.032501 865.493469,179.128586 869.083130,179.705109 
	C875.577515,180.748169 882.360718,180.063080 889.020203,179.935837 
	C890.076660,179.915634 891.116821,179.040054 892.737122,178.042496 
M212.522659,191.614136 
	C212.648132,180.355804 212.781097,169.097534 212.854691,157.838867 
	C212.856476,157.564514 212.197952,157.285843 211.158813,156.702652 
	C208.011093,155.554962 204.923569,154.186432 201.702316,153.308563 
	C196.127686,151.789307 191.452133,149.767197 190.404968,143.039581 
	C189.982010,140.322281 187.960022,137.871796 186.793457,135.243179 
	C186.351364,134.247040 185.728012,132.824081 186.109756,132.051453 
	C188.690201,126.828773 191.517975,121.728302 193.541702,117.942696 
	C190.489349,114.049538 187.449631,110.172478 184.187210,106.011375 
	C167.485123,122.801208 151.542206,138.827881 135.449234,155.005386 
	C140.166199,159.367462 144.537140,163.165329 148.601608,167.266907 
	C150.771332,169.456451 152.141739,169.316605 154.327133,167.258850 
	C159.840088,162.067886 165.614777,157.154892 171.284561,152.130493 
	C171.136169,153.321259 171.798126,155.621094 172.412994,157.933441 
	C174.905914,167.308563 176.573410,176.812378 173.669174,186.320755 
	C172.619934,189.755890 173.496826,191.960709 175.616898,194.235672 
	C179.106232,197.979904 182.500671,201.820801 186.147079,205.405304 
	C187.201019,206.441330 188.980240,206.739532 190.043869,207.207443 
	C192.546616,203.425903 190.385559,198.389908 195.797485,196.985107 
	C201.182022,195.587418 206.447388,193.730728 212.522659,191.614136 
M142.732224,94.930367 
	C139.639450,93.727715 136.546677,92.525063 133.079193,91.176689 
	C132.388840,87.705391 132.231750,83.472031 130.620865,79.893013 
	C129.305908,76.971466 128.187881,73.214622 122.755974,73.780220 
	C114.678833,74.621262 106.449234,73.998024 98.284523,73.998154 
	C91.165688,73.998260 91.303513,74.413696 88.900627,81.413788 
	C87.449699,85.640663 86.931198,90.955078 81.696030,93.045479 
	C80.393021,93.565773 79.104073,94.121460 77.799042,94.636482 
	C72.376328,96.776505 67.895538,100.088432 61.135544,95.422066 
	C52.785381,89.658051 52.325649,90.985680 45.144672,96.995499 
	C41.116718,100.366531 42.942829,102.456718 45.431240,104.948448 
	C62.292450,121.832176 79.181313,138.688293 96.060783,155.553772 
	C110.205208,169.686493 124.343330,183.825516 138.495636,197.950317 
	C145.123764,204.565567 151.778717,211.153946 158.595444,217.927307 
	C144.525024,232.514450 127.526878,238.656479 108.380989,238.795685 
	C102.311836,238.839813 96.108658,236.889359 90.168663,235.158829 
	C72.710533,230.072571 60.298725,219.001541 52.770023,202.451920 
	C51.492001,199.642578 49.607540,198.795883 47.223034,201.122925 
	C45.271389,203.027512 43.912086,205.715225 41.701267,207.145386 
	C34.804585,211.606827 32.085766,218.764908 28.799068,225.635818 
	C25.515116,232.501007 25.510330,233.133865 30.842184,238.296524 
	C36.557507,243.830536 42.598579,249.041702 48.119751,254.758575 
	C52.987049,259.798370 54.627735,260.092468 59.406704,255.132324 
	C63.872147,250.497589 68.374779,249.697067 74.184113,252.671875 
	C76.757133,253.989471 79.110397,256.502075 81.734550,256.765137 
	C85.219147,257.114441 86.070831,259.082245 86.994011,261.544250 
	C87.941887,264.072113 89.224228,266.560760 89.646957,269.181610 
	C90.564522,274.870331 94.049812,276.211487 99.175896,276.057709 
	C106.500885,275.837982 113.845627,275.789459 121.166138,276.074127 
	C126.316780,276.274384 129.792267,275.728119 130.639847,269.290375 
	C131.012283,266.461639 133.114594,263.622223 133.389297,260.304352 
	C133.488525,259.105713 135.152115,257.629333 136.450272,257.010162 
	C141.195831,254.746735 146.077835,252.766190 150.935547,250.744247 
	C151.750656,250.404968 152.915863,249.966919 153.552277,250.292328 
	C157.367447,252.242966 161.208588,254.201492 164.777603,256.556610 
	C167.721008,258.498901 169.925278,258.436523 172.532547,255.962036 
	C180.304214,248.586166 188.247345,241.390961 195.602280,234.606018 
	C192.286438,227.526993 190.438431,221.649124 187.057709,216.851257 
	C182.792007,210.797440 177.546112,205.350174 172.242142,200.129883 
	C161.752136,189.805283 150.729218,180.019897 140.296844,169.639511 
	C125.684349,155.099854 111.441734,140.189072 96.966080,125.510834 
	C93.780411,122.280579 90.280846,119.359879 86.734550,116.121971 
	C87.707047,115.256065 88.314178,114.275551 89.115700,114.076050 
	C93.110573,113.081734 97.149139,111.617195 101.186066,111.573013 
	C109.419914,111.482880 118.058334,110.783180 125.797745,112.950180 
	C134.738358,115.453499 142.846039,120.871666 151.432098,124.766914 
	C152.699905,125.342072 155.249359,125.119545 156.122955,124.217422 
	C163.538589,116.559502 170.703217,108.658516 178.545334,100.179291 
	C176.475845,98.090111 173.539719,94.767372 170.173859,91.959869 
	C169.237274,91.178658 166.844711,91.478249 165.440887,92.058342 
	C162.382828,93.322014 159.554657,95.131584 156.588852,96.631676 
	C153.216431,98.337418 149.893570,98.277916 146.616394,96.234795 
	C145.696518,95.661308 144.575562,95.410385 142.732224,94.930367 
M119.686646,188.864578 
	C119.001633,187.992279 118.403366,187.031662 117.618675,186.260818 
	C104.298439,173.175278 90.909966,160.158890 77.630463,147.032242 
	C66.145279,135.679245 54.833851,124.150085 43.311508,112.835373 
	C41.010288,110.575607 38.293400,107.972435 35.397385,107.398438 
	C33.878357,107.097374 31.842348,111.355522 29.535368,112.668304 
	C24.899925,115.306076 25.799799,118.324722 27.974514,121.899010 
	C29.633152,124.625107 31.586258,127.308434 32.526165,130.289001 
	C33.188042,132.387909 32.798557,135.089371 32.106030,137.277283 
	C31.195536,140.153824 28.712681,142.692200 28.368046,145.552155 
	C27.805473,150.220688 25.099304,152.081772 21.265574,153.313736 
	C18.517242,154.196915 15.645136,154.812958 13.060769,156.038513 
	C11.771439,156.649948 10.160379,158.341721 10.132419,159.577362 
	C9.898793,169.901505 9.935187,180.234222 10.090540,190.561310 
	C10.107794,191.708282 11.125713,193.441193 12.116605,193.854462 
	C14.614188,194.896149 17.465208,195.081161 19.980375,196.092484 
	C22.657526,197.168961 25.522423,198.375626 27.535128,200.321915 
	C29.198797,201.930695 29.740360,204.699875 30.779129,206.954880 
	C32.659103,205.283707 34.558136,203.633377 36.414841,201.936737 
	C39.667877,198.964172 43.029488,196.091064 46.058670,192.903595 
	C47.095871,191.812180 48.057335,189.701004 47.721527,188.399353 
	C44.403908,175.539734 46.229446,163.196075 50.730217,150.605225 
	C51.748848,151.995819 52.376728,153.134750 53.260830,154.016907 
	C63.525253,164.258743 73.813240,174.477097 84.126602,184.669693 
	C90.810936,191.275757 97.978096,197.453629 104.134552,204.515839 
	C109.855942,211.078979 111.603058,211.440170 116.856689,204.188095 
	C117.527245,203.262482 118.232620,202.351105 119.012276,201.517715 
	C120.940231,199.456924 124.018936,197.678711 124.516861,195.336594 
	C124.885323,193.603409 121.922348,191.161972 119.686646,188.864578 
M326.000397,155.500000 
	C326.000397,147.404099 326.000397,139.308212 326.000397,131.227203 
	C317.355011,131.227203 309.279266,131.227203 301.300659,131.227203 
	C295.701843,140.947708 290.225403,150.455765 284.635345,160.161026 
	C284.055023,159.402039 283.457886,158.818314 283.093384,158.114151 
	C279.022430,150.249634 275.057037,142.329254 270.878510,134.522797 
	C270.127747,133.120239 268.574066,131.208313 267.329803,131.161560 
	C259.259644,130.858215 251.172501,131.005966 243.335632,131.005966 
	C243.335632,147.752563 243.335632,163.820251 243.335632,179.662735 
	C249.084137,179.662735 254.492584,179.662735 260.299774,179.662735 
	C260.299774,169.358856 260.299774,159.389603 260.299774,148.675690 
	C266.318634,159.566757 271.915680,169.694550 277.611084,180.000305 
	C281.318542,180.000305 285.145935,180.062042 288.968811,179.958313 
	C289.964539,179.931305 291.434326,179.699997 291.859406,179.034378 
	C296.395874,171.930817 300.803925,164.743927 305.162506,157.528732 
	C306.875885,154.692322 308.376343,151.727310 309.973785,148.820862 
	C310.999603,154.364334 311.302216,159.513306 310.913971,164.609665 
	C310.530365,169.645462 309.448639,174.628067 308.661255,179.710968 
	C314.983246,179.710968 320.387756,179.710968 326.000397,179.710968 
	C326.000397,171.781906 326.000397,164.140945 326.000397,155.500000 
M746.906799,145.822327 
	C746.920044,151.978882 746.898071,158.135773 746.954712,164.291931 
	C747.045227,174.133682 751.146667,179.541626 759.324890,179.946350 
	C770.384460,180.493683 781.461365,180.828384 792.533386,180.913162 
	C796.372986,180.942566 800.402161,180.487869 804.005310,179.259003 
	C806.776978,178.313736 809.978821,176.318573 811.268921,173.880051 
	C813.224854,170.183167 814.541077,165.705170 814.584839,161.542770 
	C814.650879,155.268234 815.501709,148.997665 813.259277,142.577362 
	C811.288452,136.934845 807.997803,131.656311 802.500916,130.991730 
	C797.944824,130.440872 793.333740,130.009033 788.753601,130.064926 
	C780.176819,130.169540 771.605347,130.916580 763.030823,130.930450 
	C753.844116,130.945328 747.919983,135.868042 746.906799,145.822327 
M676.000000,145.504715 
	C676.000000,156.929199 676.000000,168.353668 676.000000,179.722977 
	C681.638428,179.722977 686.711426,179.722977 692.257080,179.722977 
	C692.257080,176.056198 692.257080,172.657501 692.257080,169.054001 
	C698.216187,169.054001 703.697388,169.053986 709.178589,169.054016 
	C720.256470,169.054092 720.256470,169.054092 721.396484,179.798798 
	C726.782410,179.798798 732.190063,179.798798 737.953979,179.798798 
	C737.731018,173.198425 739.425476,166.405258 733.010742,161.321945 
	C738.668762,157.859482 738.383484,151.775146 738.807495,146.513962 
	C739.630554,136.300629 734.075195,130.977554 723.955261,130.996124 
	C714.296387,131.013855 704.637512,130.999939 694.978638,130.999924 
	C688.718384,130.999924 682.458191,130.999924 676.000000,130.999924 
	C676.000000,135.888763 676.000000,140.198334 676.000000,145.504715 
M336.026550,166.492065 
	C336.026550,170.925339 336.026550,175.358612 336.026550,179.731873 
	C354.964722,179.731873 373.362823,179.731873 391.731750,179.731873 
	C391.731750,175.716766 391.731750,171.977768 391.731750,167.865417 
	C379.048676,167.865417 366.631104,167.865417 354.278809,167.865417 
	C354.278809,165.739120 354.278809,164.003647 354.278809,161.858490 
	C365.964569,161.858490 377.369873,161.858490 388.695496,161.858490 
	C388.695496,157.363663 388.695496,153.293396 388.695496,148.830414 
	C376.988190,148.830414 365.583344,148.830414 354.274475,148.830414 
	C354.274475,146.687973 354.274475,144.952698 354.274475,142.837402 
	C366.964172,142.837402 379.373535,142.837402 391.724915,142.837402 
	C391.724915,138.703110 391.724915,134.963760 391.724915,130.998886 
	C374.152588,130.998886 356.856232,131.052246 339.560730,130.954559 
	C336.038269,130.934662 335.995728,132.981522 336.007446,135.517487 
	C336.053619,145.509903 336.026489,155.502655 336.026550,166.492065 
M402.997864,173.494995 
	C404.413330,176.226868 406.096100,178.381088 409.503448,179.062912 
	C424.193481,182.002487 438.943939,181.134949 453.676788,179.868286 
	C455.836914,179.682556 458.056396,177.976303 459.880768,176.514694 
	C465.091888,172.339783 462.386353,166.565201 462.998840,161.192490 
	C457.170441,161.192490 451.740021,161.192490 446.132202,161.192490 
	C446.289154,165.800293 443.941956,167.467300 439.630859,167.032883 
	C437.654755,166.833771 435.642242,166.980835 433.646393,166.995026 
	C416.608154,167.116150 416.815033,168.559540 416.979156,150.318085 
	C417.018127,145.988205 419.143829,144.049377 423.339020,144.048065 
	C428.831421,144.046326 434.333466,144.209763 439.812988,143.935730 
	C443.693146,143.741699 446.625793,144.246704 446.381500,149.021439 
	C451.819336,149.021439 456.807709,149.027679 461.795929,149.005875 
	C462.094757,149.004578 462.392609,148.779221 462.685516,148.644836 
	C464.659790,137.318771 458.727234,130.007446 447.443237,130.942001 
	C444.163116,131.213669 440.822815,130.650864 437.515015,130.717072 
	C429.020630,130.887024 420.419128,130.441116 412.066803,131.657883 
	C403.522797,132.902603 400.407684,140.479721 400.104248,148.418930 
	C399.790222,156.636215 399.127686,165.001907 402.997864,173.494995 
M518.257812,162.001526 
	C518.838318,163.278946 519.861694,164.536652 519.919556,165.837357 
	C520.124512,170.441284 519.999329,175.059921 519.999329,179.775787 
	C525.854553,179.775787 531.256531,179.775787 536.785767,179.775787 
	C536.785767,163.488098 536.785767,147.425964 536.785767,131.212463 
	C531.168274,131.212463 525.766357,131.212463 519.970093,131.212463 
	C519.970093,136.822708 519.970093,142.235229 519.970093,147.797379 
	C509.508514,147.797379 499.443237,147.797379 488.986267,147.797379 
	C488.986267,142.197357 488.986267,136.783157 488.986267,131.201508 
	C483.191803,131.201508 477.789948,131.201508 472.193909,131.201508 
	C472.193909,147.465866 472.193909,163.528015 472.193909,179.633118 
	C477.911316,179.633118 483.432465,179.633118 489.202820,179.633118 
	C489.202820,173.647110 489.202820,168.028168 489.202820,161.994919 
	C498.738556,161.994919 508.017059,161.994919 518.257812,162.001526 
M970.967896,144.004272 
	C972.653198,145.474854 974.338501,146.945435 976.322266,148.676407 
	C980.400452,148.676407 985.150696,148.676407 990.000183,148.676407 
	C990.000183,146.194229 990.015198,144.035477 989.997253,141.877014 
	C989.946899,135.820099 985.395264,131.026886 979.267090,130.978439 
	C967.087585,130.882156 954.893860,130.661194 942.731812,131.142212 
	C937.036499,131.367432 929.961792,133.198059 929.533936,140.948273 
	C929.011902,150.404480 928.741150,159.931992 929.320984,169.369736 
	C929.661316,174.909943 933.787231,178.529358 939.372375,179.742279 
	C941.287659,180.158218 943.342041,179.988327 945.333008,179.991547 
	C956.693726,180.009933 968.056335,180.121964 979.414490,179.949692 
	C985.440002,179.858322 988.415894,177.441864 990.038269,171.367874 
	C990.894165,168.163177 990.924927,164.738068 991.356812,161.177460 
	C985.469177,161.177460 980.364319,161.177460 975.085754,161.177460 
	C975.328674,165.496262 973.356995,167.211807 969.145569,167.055801 
	C963.158875,166.834061 957.157471,166.956070 951.163086,167.010330 
	C946.897705,167.048935 944.882385,165.073700 945.024109,160.768692 
	C945.122681,157.773849 944.987061,154.772079 945.005798,151.773712 
	C945.047913,145.037521 946.008545,144.037201 952.566162,144.008652 
	C958.396790,143.983261 964.227722,144.024826 970.967896,144.004272 
M557.161011,180.000732 
	C563.323486,180.870163 561.605225,174.249680 565.129333,171.999634 
	C573.117371,171.999634 581.611267,171.803375 590.081116,172.165848 
	C591.767334,172.238007 593.405518,174.394760 594.987122,175.686630 
	C596.673462,177.064072 598.154602,179.611969 599.921204,179.799026 
	C605.160339,180.353775 610.496033,179.997650 616.780334,179.997650 
	C615.356750,177.083145 614.408020,174.742340 613.127563,172.599747 
	C610.168091,167.647430 606.882263,162.885010 604.039368,157.869522 
	C601.208679,152.875488 598.407410,147.811111 596.218689,142.518906 
	C592.660950,133.916565 587.590698,128.448639 577.345581,130.951569 
	C575.931641,131.297028 574.321716,131.216614 572.869873,130.956741 
	C569.146240,130.290298 567.484741,132.284149 565.904602,135.290131 
	C562.731567,141.326523 559.156677,147.151398 555.758179,153.069672 
	C550.720154,161.843292 545.691223,170.622208 540.313232,180.000763 
	C546.278320,180.000763 551.256775,180.000763 557.161011,180.000732 
M990.999939,210.567810 
	C990.989258,203.191055 990.806641,203.000946 983.631409,203.000595 
	C958.654541,202.999390 933.677612,203.000107 908.700745,203.000122 
	C888.386230,203.000137 868.071472,203.041733 847.757263,202.964828 
	C843.736023,202.949615 841.850403,204.623291 841.987671,208.646820 
	C842.058472,210.722580 842.000122,212.802765 842.000122,214.999878 
	C856.320557,214.999878 869.964600,214.999878 883.608643,214.999878 
	C917.910217,214.999878 952.211792,214.998184 986.513367,215.003479 
	C988.945679,215.003845 991.895691,215.717529 990.999939,210.567810 
M264.500641,203.000122 
	C259.504181,203.000137 254.505585,202.920959 249.512634,203.053421 
	C248.192795,203.088440 246.782974,203.572861 245.598419,204.198929 
	C240.585678,206.848312 243.901779,211.179367 243.102081,214.744705 
	C292.972717,214.744705 342.359070,214.744705 391.999908,214.744705 
	C391.999908,213.187134 391.996918,211.882736 392.000397,210.578384 
	C392.020630,203.000229 392.021149,203.000137 384.416962,203.000137 
	C344.778137,203.000107 305.139313,203.000122 264.500641,203.000122 
M655.556091,143.999969 
	C660.314636,143.999969 665.073181,143.999969 669.688232,143.999969 
	C669.688232,139.311768 669.688232,135.241013 669.688232,131.296143 
	C649.982544,131.296143 630.586670,131.296143 611.297546,131.296143 
	C611.297546,135.671082 611.297546,139.743179 611.297546,144.263611 
	C618.319702,144.263611 625.052124,144.263611 632.000122,144.263611 
	C632.000122,156.334045 632.000122,167.941940 632.000122,179.682281 
	C637.448975,179.682281 642.647888,179.682281 648.233093,179.682281 
	C648.233093,167.630905 648.233093,155.893997 648.233093,143.999969 
	C650.607056,143.999969 652.590210,143.999969 655.556091,143.999969 
M765.910706,223.351837 
	C770.903198,223.634567 775.895691,223.917297 781.002563,224.206512 
	C781.002563,218.654556 781.002563,213.995728 781.002563,209.336899 
	C781.002563,204.577927 781.002563,199.818954 781.002563,195.342957 
	C777.243286,195.342957 774.167053,195.342957 770.663757,195.342957 
	C770.663757,201.010086 770.663757,206.331619 770.663757,211.944168 
	C766.548462,207.017273 762.782654,202.487198 758.993103,197.977112 
	C753.773865,191.765549 747.083618,196.606110 741.309204,194.893829 
	C741.309204,205.041245 741.309204,214.452164 741.309204,223.688080 
	C744.704651,223.688080 747.779236,223.688080 750.767883,223.688080 
	C751.006836,218.395706 751.231140,213.427551 751.482544,207.859451 
	C756.725037,213.551071 761.022217,218.216354 765.910706,223.351837 
M399.734497,208.364853 
	C401.059906,210.034576 402.385315,211.704285 403.941071,213.664230 
	C402.657623,213.877716 401.349274,214.095337 400.103882,214.302490 
	C399.981964,221.225021 402.463440,223.872940 409.070190,223.982712 
	C414.554077,224.073822 420.042725,223.908005 425.525299,224.031876 
	C429.687134,224.125931 433.508179,223.197510 435.750854,219.580917 
	C437.828094,216.231140 435.993561,210.243912 432.180298,206.293274 
	C436.236237,205.927673 436.209320,204.072632 435.314392,200.600342 
	C433.803284,194.737411 429.304199,194.877350 425.099915,194.466385 
	C416.015991,193.578430 406.895599,192.983139 399.970428,198.560379 
	C399.970428,202.190201 399.970428,204.900864 399.734497,208.364853 
M806.485840,194.995712 
	C802.322937,194.289825 799.505798,196.334091 798.147034,199.915756 
	C796.289917,204.811447 798.367859,210.538239 802.887085,213.849106 
	C801.086975,213.970596 799.599121,214.071014 798.222290,214.163940 
	C797.396179,219.126846 798.409119,223.298706 803.472656,223.650101 
	C811.550171,224.210663 819.712341,223.995987 827.809875,223.565826 
	C830.453430,223.425400 834.092468,222.441147 833.889282,218.592514 
	C833.665466,214.350571 836.237183,209.115479 831.269287,206.920471 
	C831.919128,205.413086 832.671692,204.206055 832.958008,202.897064 
	C833.666260,199.658493 832.527344,195.825150 829.702942,195.497162 
	C822.339905,194.642136 814.830627,195.046494 806.485840,194.995712 
M686.359131,198.137405 
	C685.906006,203.656281 685.236389,209.168106 685.056213,214.695862 
	C684.845459,221.163116 687.615112,223.881561 694.159424,223.977646 
	C701.151733,224.080307 708.148743,224.103745 715.140015,223.969223 
	C721.096069,223.854645 724.645081,219.367950 724.063965,213.475632 
	C723.755127,210.344284 723.773376,207.128220 724.103943,203.998993 
	C724.557556,199.704620 721.515015,195.304291 717.315247,195.023468 
	C711.060120,194.605225 704.751648,193.752014 698.550171,194.214447 
	C694.674194,194.503479 689.627808,192.533737 686.359131,198.137405 
M456.754181,196.026535 
	C452.197815,201.776230 452.879608,208.384323 453.456299,215.059158 
	C453.852692,219.647308 455.488403,223.409668 460.402466,223.672974 
	C468.671173,224.116013 477.011810,224.318222 485.252869,223.699173 
	C489.219818,223.401169 491.805817,219.914963 491.965363,215.576843 
	C492.123962,211.264786 492.645935,206.805618 491.771332,202.672806 
	C491.195221,199.950592 488.815857,196.035553 486.576843,195.512985 
	C477.006287,193.279190 467.205719,192.873688 456.754181,196.026535 
M902.727478,179.944839 
	C908.005371,179.944839 913.283325,179.944839 918.726868,179.944839 
	C918.726868,163.505066 918.726868,147.457458 918.726868,131.222870 
	C913.121643,131.222870 907.729858,131.222870 902.053162,131.222870 
	C902.053162,147.382202 902.053162,163.317627 902.727478,179.944839 
M553.999390,213.926880 
	C553.735657,215.273636 553.471863,216.620377 552.938293,219.344467 
	C557.500427,220.930054 561.819336,223.015656 566.366760,223.840088 
	C570.552246,224.598907 574.983643,224.001694 579.306702,224.001358 
	C588.818909,224.000641 591.117676,221.686478 591.013306,212.391251 
	C590.948730,206.639206 591.001343,200.885834 591.001343,195.463715 
	C586.995544,195.463715 583.624023,195.463715 580.412842,195.463715 
	C580.412842,202.161240 580.412842,208.387680 580.412842,215.482483 
	C577.680176,215.642883 574.651794,215.934250 571.620178,215.973846 
	C566.098755,216.045944 565.063965,214.987320 565.005554,209.399155 
	C564.955872,204.649185 564.995239,199.898300 564.995239,195.308289 
	C560.964844,195.308289 557.562866,195.308289 553.998657,195.308289 
	C553.998657,201.419937 553.998657,207.222931 553.999390,213.926880 
M629.003113,213.498840 
	C629.003113,210.062561 629.003113,206.626282 629.003113,202.829773 
	C633.320129,202.829773 637.072083,202.829773 640.722046,202.829773 
	C640.722046,200.029449 640.722046,197.623596 640.722046,194.997238 
	C629.974976,194.997238 619.506653,195.067490 609.040161,194.958130 
	C605.499207,194.921143 605.664551,197.299362 605.498352,199.597122 
	C605.315430,202.125717 606.442749,203.174606 609.041260,203.042709 
	C612.296448,202.877457 615.566345,203.002945 619.191528,203.002945 
	C619.191528,210.343719 619.191528,217.089737 619.191528,223.708603 
	C622.664307,223.708603 625.738770,223.708603 629.003113,223.708603 
	C629.003113,220.438416 629.003113,217.460999 629.003113,213.498840 
M534.227783,223.999878 
	C541.195801,224.641281 538.443726,219.660751 539.084045,215.993896 
	C532.894104,215.993896 527.138855,215.993896 521.000000,215.993896 
	C521.000000,211.997910 521.043945,208.376129 520.991821,204.755737 
	C520.833374,193.756454 522.740295,195.023849 511.198273,195.050751 
	C510.917969,195.051407 510.638214,195.292938 510.213104,195.489075 
	C510.213104,204.827698 510.213104,214.230637 510.213104,223.999954 
	C518.040283,223.999954 525.660217,223.999954 534.227783,223.999878 
M662.499634,224.000534 
	C664.262451,224.000534 666.025269,224.000534 667.702942,224.000534 
	C667.702942,214.012039 667.702942,204.603333 667.702942,195.298248 
	C663.997437,195.298248 660.590698,195.298248 657.298889,195.298248 
	C657.298889,205.008728 657.298889,214.417801 657.298889,224.000534 
	C658.913391,224.000534 660.229370,224.000534 662.499634,224.000534 
z"/>
<path fill="#FEFEFE" opacity="1.000000" stroke="none" 
	d="
M143.139526,94.970932 
	C144.575562,95.410385 145.696518,95.661308 146.616394,96.234795 
	C149.893570,98.277916 153.216431,98.337418 156.588852,96.631676 
	C159.554657,95.131584 162.382828,93.322014 165.440887,92.058342 
	C166.844711,91.478249 169.237274,91.178658 170.173859,91.959869 
	C173.539719,94.767372 176.475845,98.090111 178.545334,100.179291 
	C170.703217,108.658516 163.538589,116.559502 156.122955,124.217422 
	C155.249359,125.119545 152.699905,125.342072 151.432098,124.766914 
	C142.846039,120.871666 134.738358,115.453499 125.797745,112.950180 
	C118.058334,110.783180 109.419914,111.482880 101.186066,111.573013 
	C97.149139,111.617195 93.110573,113.081734 89.115700,114.076050 
	C88.314178,114.275551 87.707047,115.256065 86.734550,116.121971 
	C90.280846,119.359879 93.780411,122.280579 96.966080,125.510834 
	C111.441734,140.189072 125.684349,155.099854 140.296844,169.639511 
	C150.729218,180.019897 161.752136,189.805283 172.242142,200.129883 
	C177.546112,205.350174 182.792007,210.797440 187.057709,216.851257 
	C190.438431,221.649124 192.286438,227.526993 195.602280,234.606018 
	C188.247345,241.390961 180.304214,248.586166 172.532547,255.962036 
	C169.925278,258.436523 167.721008,258.498901 164.777603,256.556610 
	C161.208588,254.201492 157.367447,252.242966 153.552277,250.292328 
	C152.915863,249.966919 151.750656,250.404968 150.935547,250.744247 
	C146.077835,252.766190 141.195831,254.746735 136.450272,257.010162 
	C135.152115,257.629333 133.488525,259.105713 133.389297,260.304352 
	C133.114594,263.622223 131.012283,266.461639 130.639847,269.290375 
	C129.792267,275.728119 126.316780,276.274384 121.166138,276.074127 
	C113.845627,275.789459 106.500885,275.837982 99.175896,276.057709 
	C94.049812,276.211487 90.564522,274.870331 89.646957,269.181610 
	C89.224228,266.560760 87.941887,264.072113 86.994011,261.544250 
	C86.070831,259.082245 85.219147,257.114441 81.734550,256.765137 
	C79.110397,256.502075 76.757133,253.989471 74.184113,252.671875 
	C68.374779,249.697067 63.872147,250.497589 59.406704,255.132324 
	C54.627735,260.092468 52.987049,259.798370 48.119751,254.758575 
	C42.598579,249.041702 36.557507,243.830536 30.842184,238.296524 
	C25.510330,233.133865 25.515116,232.501007 28.799068,225.635818 
	C32.085766,218.764908 34.804585,211.606827 41.701267,207.145386 
	C43.912086,205.715225 45.271389,203.027512 47.223034,201.122925 
	C49.607540,198.795883 51.492001,199.642578 52.770023,202.451920 
	C60.298725,219.001541 72.710533,230.072571 90.168663,235.158829 
	C96.108658,236.889359 102.311836,238.839813 108.380989,238.795685 
	C127.526878,238.656479 144.525024,232.514450 158.595444,217.927307 
	C151.778717,211.153946 145.123764,204.565567 138.495636,197.950317 
	C124.343330,183.825516 110.205208,169.686493 96.060783,155.553772 
	C79.181313,138.688293 62.292450,121.832176 45.431240,104.948448 
	C42.942829,102.456718 41.116718,100.366531 45.144672,96.995499 
	C52.325649,90.985680 52.785381,89.658051 61.135544,95.422066 
	C67.895538,100.088432 72.376328,96.776505 77.799042,94.636482 
	C79.104073,94.121460 80.393021,93.565773 81.696030,93.045479 
	C86.931198,90.955078 87.449699,85.640663 88.900627,81.413788 
	C91.303513,74.413696 91.165688,73.998260 98.284523,73.998154 
	C106.449234,73.998024 114.678833,74.621262 122.755974,73.780220 
	C128.187881,73.214622 129.305908,76.971466 130.620865,79.893013 
	C132.231750,83.472031 132.388840,87.705391 133.079193,91.176689 
	C136.546677,92.525063 139.639450,93.727715 143.139526,94.970932 
z"/>
<path fill="#FEFEFF" opacity="1.000000" stroke="none" 
	d="
M120.065086,188.950317 
	C121.922348,191.161972 124.885323,193.603409 124.516861,195.336594 
	C124.018936,197.678711 120.940231,199.456924 119.012276,201.517715 
	C118.232620,202.351105 117.527245,203.262482 116.856689,204.188095 
	C111.603058,211.440170 109.855942,211.078979 104.134552,204.515839 
	C97.978096,197.453629 90.810936,191.275757 84.126602,184.669693 
	C73.813240,174.477097 63.525253,164.258743 53.260830,154.016907 
	C52.376728,153.134750 51.748848,151.995819 50.730217,150.605225 
	C46.229446,163.196075 44.403908,175.539734 47.721527,188.399353 
	C48.057335,189.701004 47.095871,191.812180 46.058670,192.903595 
	C43.029488,196.091064 39.667877,198.964172 36.414841,201.936737 
	C34.558136,203.633377 32.659103,205.283707 30.779125,206.954880 
	C29.740360,204.699875 29.198797,201.930695 27.535128,200.321915 
	C25.522423,198.375626 22.657526,197.168961 19.980375,196.092484 
	C17.465208,195.081161 14.614188,194.896149 12.116605,193.854462 
	C11.125713,193.441193 10.107794,191.708282 10.090540,190.561310 
	C9.935187,180.234222 9.898793,169.901505 10.132419,159.577362 
	C10.160379,158.341721 11.771439,156.649948 13.060769,156.038513 
	C15.645136,154.812958 18.517242,154.196915 21.265574,153.313736 
	C25.099304,152.081772 27.805473,150.220688 28.368046,145.552155 
	C28.712681,142.692200 31.195536,140.153824 32.106030,137.277283 
	C32.798557,135.089371 33.188042,132.387909 32.526165,130.289001 
	C31.586258,127.308434 29.633152,124.625107 27.974514,121.899010 
	C25.799799,118.324722 24.899925,115.306076 29.535368,112.668304 
	C31.842348,111.355522 33.878357,107.097374 35.397385,107.398438 
	C38.293400,107.972435 41.010288,110.575607 43.311508,112.835373 
	C54.833851,124.150085 66.145279,135.679245 77.630463,147.032242 
	C90.909966,160.158890 104.298439,173.175278 117.618675,186.260818 
	C118.403366,187.031662 119.001633,187.992279 120.065086,188.950317 
z"/>
<path fill="#FEFEFF" opacity="1.000000" stroke="none" 
	d="
M211.765015,192.075302 
	C206.447388,193.730728 201.182022,195.587418 195.797485,196.985107 
	C190.385559,198.389908 192.546616,203.425903 190.043869,207.207443 
	C188.980240,206.739532 187.201019,206.441330 186.147079,205.405304 
	C182.500671,201.820801 179.106232,197.979904 175.616898,194.235672 
	C173.496826,191.960709 172.619934,189.755890 173.669174,186.320755 
	C176.573410,176.812378 174.905914,167.308563 172.412994,157.933441 
	C171.798126,155.621094 171.136169,153.321259 171.284561,152.130493 
	C165.614777,157.154892 159.840088,162.067886 154.327133,167.258850 
	C152.141739,169.316605 150.771332,169.456451 148.601608,167.266907 
	C144.537140,163.165329 140.166199,159.367462 135.449234,155.005386 
	C151.542206,138.827881 167.485123,122.801208 184.187210,106.011375 
	C187.449631,110.172478 190.489349,114.049538 193.541702,117.942696 
	C191.517975,121.728302 188.690201,126.828773 186.109756,132.051453 
	C185.728012,132.824081 186.351364,134.247040 186.793457,135.243179 
	C187.960022,137.871796 189.982010,140.322281 190.404968,143.039581 
	C191.452133,149.767197 196.127686,151.789307 201.702316,153.308563 
	C204.923569,154.186432 208.011093,155.554962 211.584686,157.318619 
	C211.928726,169.314819 211.846878,180.695068 211.765015,192.075302 
z"/>
<path fill="#FFFFFF" opacity="1.000000" stroke="none" 
	d="
M326.000397,155.999985 
	C326.000397,164.140945 326.000397,171.781906 326.000397,179.710968 
	C320.387756,179.710968 314.983246,179.710968 308.661255,179.710968 
	C309.448639,174.628067 310.530365,169.645462 310.913971,164.609665 
	C311.302216,159.513306 310.999603,154.364334 309.973785,148.820862 
	C308.376343,151.727310 306.875885,154.692322 305.162506,157.528732 
	C300.803925,164.743927 296.395874,171.930817 291.859406,179.034378 
	C291.434326,179.699997 289.964539,179.931305 288.968811,179.958313 
	C285.145935,180.062042 281.318542,180.000305 277.611084,180.000305 
	C271.915680,169.694550 266.318634,159.566757 260.299774,148.675690 
	C260.299774,159.389603 260.299774,169.358856 260.299774,179.662735 
	C254.492584,179.662735 249.084137,179.662735 243.335632,179.662735 
	C243.335632,163.820251 243.335632,147.752563 243.335632,131.005966 
	C251.172501,131.005966 259.259644,130.858215 267.329803,131.161560 
	C268.574066,131.208313 270.127747,133.120239 270.878510,134.522797 
	C275.057037,142.329254 279.022430,150.249634 283.093384,158.114151 
	C283.457886,158.818314 284.055023,159.402039 284.635345,160.161026 
	C290.225403,150.455765 295.701843,140.947708 301.300659,131.227203 
	C309.279266,131.227203 317.355011,131.227203 326.000397,131.227203 
	C326.000397,139.308212 326.000397,147.404099 326.000397,155.999985 
z"/>
<path fill="#FFFFFF" opacity="1.000000" stroke="none" 
	d="
M892.164490,178.559967 
	C891.116821,179.040054 890.076660,179.915634 889.020203,179.935837 
	C882.360718,180.063080 875.577515,180.748169 869.083130,179.705109 
	C865.493469,179.128586 861.881104,176.032501 859.185852,173.207062 
	C855.647034,169.497131 853.036621,164.909088 849.963013,160.745911 
	C846.905029,156.604080 843.768005,152.520660 840.222900,147.825134 
	C840.222900,158.748108 840.222900,169.074829 840.222900,179.699158 
	C834.741455,179.699158 829.664429,179.699158 824.241516,179.699158 
	C824.241516,163.795151 824.241516,147.733414 824.241516,131.005966 
	C832.070801,131.005966 840.167053,130.829163 848.241150,131.173172 
	C849.651672,131.233261 851.162964,133.329620 852.297546,134.749390 
	C859.990356,144.375946 867.594543,154.073318 875.803711,164.478317 
	C875.803711,152.894638 875.803711,142.213638 875.803711,130.644028 
	C881.456909,131.073105 886.728882,131.473236 892.009277,132.777527 
	C892.066589,148.641098 892.115540,163.600525 892.164490,178.559967 
z"/>
<path fill="#FEFEFE" opacity="1.000000" stroke="none" 
	d="
M746.928467,145.364502 
	C747.919983,135.868042 753.844116,130.945328 763.030823,130.930450 
	C771.605347,130.916580 780.176819,130.169540 788.753601,130.064926 
	C793.333740,130.009033 797.944824,130.440872 802.500916,130.991730 
	C807.997803,131.656311 811.288452,136.934845 813.259277,142.577362 
	C815.501709,148.997665 814.650879,155.268234 814.584839,161.542770 
	C814.541077,165.705170 813.224854,170.183167 811.268921,173.880051 
	C809.978821,176.318573 806.776978,178.313736 804.005310,179.259003 
	C800.402161,180.487869 796.372986,180.942566 792.533386,180.913162 
	C781.461365,180.828384 770.384460,180.493683 759.324890,179.946350 
	C751.146667,179.541626 747.045227,174.133682 746.954712,164.291931 
	C746.898071,158.135773 746.920044,151.978882 746.928467,145.364502 
M797.911072,151.914459 
	C795.167542,144.033859 795.167542,144.026047 786.368408,144.002487 
	C781.371094,143.989105 776.371643,144.093750 771.377014,143.978882 
	C768.047607,143.902267 765.401428,144.883972 765.112854,148.473404 
	C764.769043,152.750763 765.175903,157.085007 764.909729,161.373032 
	C764.646240,165.618011 767.032715,166.915573 770.552795,166.968338 
	C777.547058,167.073166 784.561646,167.271500 791.528076,166.818832 
	C793.387390,166.698013 796.070435,164.697601 796.673523,162.967072 
	C797.772949,159.811859 797.600159,156.213333 797.911072,151.914459 
z"/>
<path fill="#FFFFFF" opacity="1.000000" stroke="none" 
	d="
M676.000000,145.006317 
	C676.000000,140.198334 676.000000,135.888763 676.000000,130.999924 
	C682.458191,130.999924 688.718384,130.999924 694.978638,130.999924 
	C704.637512,130.999939 714.296387,131.013855 723.955261,130.996124 
	C734.075195,130.977554 739.630554,136.300629 738.807495,146.513962 
	C738.383484,151.775146 738.668762,157.859482 733.010742,161.321945 
	C739.425476,166.405258 737.731018,173.198425 737.953979,179.798798 
	C732.190063,179.798798 726.782410,179.798798 721.396484,179.798798 
	C720.256470,169.054092 720.256470,169.054092 709.178589,169.054016 
	C703.697388,169.053986 698.216187,169.054001 692.257080,169.054001 
	C692.257080,172.657501 692.257080,176.056198 692.257080,179.722977 
	C686.711426,179.722977 681.638428,179.722977 676.000000,179.722977 
	C676.000000,168.353668 676.000000,156.929199 676.000000,145.006317 
M692.004456,145.674835 
	C692.004456,148.747345 692.004456,151.819870 692.004456,154.980850 
	C700.953979,154.980850 709.238953,154.907501 717.521729,155.009384 
	C722.212524,155.067093 721.869751,151.673355 721.416382,148.952164 
	C721.120117,147.173889 719.329834,144.256332 718.161194,144.233063 
	C709.467224,144.059875 700.761414,144.483322 692.004456,145.674835 
z"/>
<path fill="#FEFEFE" opacity="1.000000" stroke="none" 
	d="
M336.026550,165.993683 
	C336.026489,155.502655 336.053619,145.509903 336.007446,135.517487 
	C335.995728,132.981522 336.038269,130.934662 339.560730,130.954559 
	C356.856232,131.052246 374.152588,130.998886 391.724915,130.998886 
	C391.724915,134.963760 391.724915,138.703110 391.724915,142.837402 
	C379.373535,142.837402 366.964172,142.837402 354.274475,142.837402 
	C354.274475,144.952698 354.274475,146.687973 354.274475,148.830414 
	C365.583344,148.830414 376.988190,148.830414 388.695496,148.830414 
	C388.695496,153.293396 388.695496,157.363663 388.695496,161.858490 
	C377.369873,161.858490 365.964569,161.858490 354.278809,161.858490 
	C354.278809,164.003647 354.278809,165.739120 354.278809,167.865417 
	C366.631104,167.865417 379.048676,167.865417 391.731750,167.865417 
	C391.731750,171.977768 391.731750,175.716766 391.731750,179.731873 
	C373.362823,179.731873 354.964722,179.731873 336.026550,179.731873 
	C336.026550,175.358612 336.026550,170.925339 336.026550,165.993683 
z"/>
<path fill="#FFFFFF" opacity="1.000000" stroke="none" 
	d="
M402.704895,173.212158 
	C399.127686,165.001907 399.790222,156.636215 400.104248,148.418930 
	C400.407684,140.479721 403.522797,132.902603 412.066803,131.657883 
	C420.419128,130.441116 429.020630,130.887024 437.515015,130.717072 
	C440.822815,130.650864 444.163116,131.213669 447.443237,130.942001 
	C458.727234,130.007446 464.659790,137.318771 462.688232,148.651474 
	C462.392609,148.779221 462.094757,149.004578 461.795929,149.005875 
	C456.807709,149.027679 451.819336,149.021439 446.381500,149.021439 
	C446.625793,144.246704 443.693146,143.741699 439.812988,143.935730 
	C434.333466,144.209763 428.831421,144.046326 423.339020,144.048065 
	C419.143829,144.049377 417.018127,145.988205 416.979156,150.318085 
	C416.815033,168.559540 416.608154,167.116150 433.646393,166.995026 
	C435.642242,166.980835 437.654755,166.833771 439.630859,167.032883 
	C443.941956,167.467300 446.289154,165.800293 446.132202,161.192490 
	C451.740021,161.192490 457.170441,161.192490 462.998840,161.192490 
	C462.386353,166.565201 465.091888,172.339783 459.880768,176.514694 
	C458.056396,177.976303 455.836914,179.682556 453.676788,179.868286 
	C438.943939,181.134949 424.193481,182.002487 409.503448,179.062912 
	C406.096100,178.381088 404.413330,176.226868 402.704895,173.212158 
z"/>
<path fill="#FEFEFF" opacity="1.000000" stroke="none" 
	d="
M517.776672,161.998230 
	C508.017059,161.994919 498.738556,161.994919 489.202820,161.994919 
	C489.202820,168.028168 489.202820,173.647110 489.202820,179.633118 
	C483.432465,179.633118 477.911316,179.633118 472.193909,179.633118 
	C472.193909,163.528015 472.193909,147.465866 472.193909,131.201508 
	C477.789948,131.201508 483.191803,131.201508 488.986267,131.201508 
	C488.986267,136.783157 488.986267,142.197357 488.986267,147.797379 
	C499.443237,147.797379 509.508514,147.797379 519.970093,147.797379 
	C519.970093,142.235229 519.970093,136.822708 519.970093,131.212463 
	C525.766357,131.212463 531.168274,131.212463 536.785767,131.212463 
	C536.785767,147.425964 536.785767,163.488098 536.785767,179.775787 
	C531.256531,179.775787 525.854553,179.775787 519.999329,179.775787 
	C519.999329,175.059921 520.124512,170.441284 519.919556,165.837357 
	C519.861694,164.536652 518.838318,163.278946 517.776672,161.998230 
z"/>
<path fill="#FFFFFF" opacity="1.000000" stroke="none" 
	d="
M970.513184,144.020554 
	C964.227722,144.024826 958.396790,143.983261 952.566162,144.008652 
	C946.008545,144.037201 945.047913,145.037521 945.005798,151.773712 
	C944.987061,154.772079 945.122681,157.773849 945.024109,160.768692 
	C944.882385,165.073700 946.897705,167.048935 951.163086,167.010330 
	C957.157471,166.956070 963.158875,166.834061 969.145569,167.055801 
	C973.356995,167.211807 975.328674,165.496262 975.085754,161.177460 
	C980.364319,161.177460 985.469177,161.177460 991.356812,161.177460 
	C990.924927,164.738068 990.894165,168.163177 990.038269,171.367874 
	C988.415894,177.441864 985.440002,179.858322 979.414490,179.949692 
	C968.056335,180.121964 956.693726,180.009933 945.333008,179.991547 
	C943.342041,179.988327 941.287659,180.158218 939.372375,179.742279 
	C933.787231,178.529358 929.661316,174.909943 929.320984,169.369736 
	C928.741150,159.931992 929.011902,150.404480 929.533936,140.948273 
	C929.961792,133.198059 937.036499,131.367432 942.731812,131.142212 
	C954.893860,130.661194 967.087585,130.882156 979.267090,130.978439 
	C985.395264,131.026886 989.946899,135.820099 989.997253,141.877014 
	C990.015198,144.035477 990.000183,146.194229 990.000183,148.676407 
	C985.150696,148.676407 980.400452,148.676407 976.322266,148.676407 
	C974.338501,146.945435 972.653198,145.474854 970.513184,144.020554 
z"/>
<path fill="#FEFEFF" opacity="1.000000" stroke="none" 
	d="
M556.698120,180.000748 
	C551.256775,180.000763 546.278320,180.000763 540.313232,180.000763 
	C545.691223,170.622208 550.720154,161.843292 555.758179,153.069672 
	C559.156677,147.151398 562.731567,141.326523 565.904602,135.290131 
	C567.484741,132.284149 569.146240,130.290298 572.869873,130.956741 
	C574.321716,131.216614 575.931641,131.297028 577.345581,130.951569 
	C587.590698,128.448639 592.660950,133.916565 596.218689,142.518906 
	C598.407410,147.811111 601.208679,152.875488 604.039368,157.869522 
	C606.882263,162.885010 610.168091,167.647430 613.127563,172.599747 
	C614.408020,174.742340 615.356750,177.083145 616.780334,179.997650 
	C610.496033,179.997650 605.160339,180.353775 599.921204,179.799026 
	C598.154602,179.611969 596.673462,177.064072 594.987122,175.686630 
	C593.405518,174.394760 591.767334,172.238007 590.081116,172.165848 
	C581.611267,171.803375 573.117371,171.999634 565.129333,171.999634 
	C561.605225,174.249680 563.323486,180.870163 556.698120,180.000748 
M585.935120,157.643707 
	C583.731934,153.694595 581.528687,149.745483 578.718384,144.708191 
	C575.958862,150.345993 573.682312,154.997101 571.272034,159.921326 
	C576.227173,159.921326 580.537842,159.962006 584.844788,159.855209 
	C585.252808,159.845093 585.637939,158.909912 585.935120,157.643707 
z"/>
<path fill="#FFFFFF" opacity="1.000000" stroke="none" 
	d="
M990.999939,211.029175 
	C991.895691,215.717529 988.945679,215.003845 986.513367,215.003479 
	C952.211792,214.998184 917.910217,214.999878 883.608643,214.999878 
	C869.964600,214.999878 856.320557,214.999878 842.000122,214.999878 
	C842.000122,212.802765 842.058472,210.722580 841.987671,208.646820 
	C841.850403,204.623291 843.736023,202.949615 847.757263,202.964828 
	C868.071472,203.041733 888.386230,203.000137 908.700745,203.000122 
	C933.677612,203.000107 958.654541,202.999390 983.631409,203.000595 
	C990.806641,203.000946 990.989258,203.191055 990.999939,211.029175 
z"/>
<path fill="#FFFFFF" opacity="1.000000" stroke="none" 
	d="
M265.000549,203.000122 
	C305.139313,203.000122 344.778137,203.000107 384.416962,203.000137 
	C392.021149,203.000137 392.020630,203.000229 392.000397,210.578384 
	C391.996918,211.882736 391.999908,213.187134 391.999908,214.744705 
	C342.359070,214.744705 292.972717,214.744705 243.102081,214.744705 
	C243.901779,211.179367 240.585678,206.848312 245.598419,204.198929 
	C246.782974,203.572861 248.192795,203.088440 249.512634,203.053421 
	C254.505585,202.920959 259.504181,203.000137 265.000549,203.000122 
z"/>
<path fill="#FFFFFF" opacity="1.000000" stroke="none" 
	d="
M655.064697,143.999969 
	C652.590210,143.999969 650.607056,143.999969 648.233093,143.999969 
	C648.233093,155.893997 648.233093,167.630905 648.233093,179.682281 
	C642.647888,179.682281 637.448975,179.682281 632.000122,179.682281 
	C632.000122,167.941940 632.000122,156.334045 632.000122,144.263611 
	C625.052124,144.263611 618.319702,144.263611 611.297546,144.263611 
	C611.297546,139.743179 611.297546,135.671082 611.297546,131.296143 
	C630.586670,131.296143 649.982544,131.296143 669.688232,131.296143 
	C669.688232,135.241013 669.688232,139.311768 669.688232,143.999969 
	C665.073181,143.999969 660.314636,143.999969 655.064697,143.999969 
z"/>
<path fill="#FEFEFE" opacity="1.000000" stroke="none" 
	d="
M765.614990,223.116730 
	C761.022217,218.216354 756.725037,213.551071 751.482544,207.859451 
	C751.231140,213.427551 751.006836,218.395706 750.767883,223.688080 
	C747.779236,223.688080 744.704651,223.688080 741.309204,223.688080 
	C741.309204,214.452164 741.309204,205.041245 741.309204,194.893829 
	C747.083618,196.606110 753.773865,191.765549 758.993103,197.977112 
	C762.782654,202.487198 766.548462,207.017273 770.663757,211.944168 
	C770.663757,206.331619 770.663757,201.010086 770.663757,195.342957 
	C774.167053,195.342957 777.243286,195.342957 781.002563,195.342957 
	C781.002563,199.818954 781.002563,204.577927 781.002563,209.336899 
	C781.002563,213.995728 781.002563,218.654556 781.002563,224.206512 
	C775.895691,223.917297 770.903198,223.634567 765.614990,223.116730 
z"/>
<path fill="#FEFEFE" opacity="1.000000" stroke="none" 
	d="
M399.852478,207.988190 
	C399.970428,204.900864 399.970428,202.190201 399.970428,198.560379 
	C406.895599,192.983139 416.015991,193.578430 425.099915,194.466385 
	C429.304199,194.877350 433.803284,194.737411 435.314392,200.600342 
	C436.209320,204.072632 436.236237,205.927673 432.180298,206.293274 
	C435.993561,210.243912 437.828094,216.231140 435.750854,219.580917 
	C433.508179,223.197510 429.687134,224.125931 425.525299,224.031876 
	C420.042725,223.908005 414.554077,224.073822 409.070190,223.982712 
	C402.463440,223.872940 399.981964,221.225021 400.103882,214.302490 
	C401.349274,214.095337 402.657623,213.877716 403.941071,213.664230 
	C402.385315,211.704285 401.059906,210.034576 399.852478,207.988190 
M417.546143,201.999084 
	C415.207306,202.366394 411.402039,200.604568 412.153381,205.718353 
	C416.483368,205.718353 420.690765,205.718353 425.001373,205.718353 
	C424.897186,200.265137 420.923004,202.544373 417.546143,201.999084 
M415.659302,213.985489 
	C414.430389,214.058014 413.201447,214.130524 411.785675,214.214066 
	C414.332947,217.839966 419.524933,218.090454 425.476349,213.985489 
	C422.510437,213.985489 419.544495,213.985489 415.659302,213.985489 
z"/>
<path fill="#FFFFFF" opacity="1.000000" stroke="none" 
	d="
M806.932739,194.972137 
	C814.830627,195.046494 822.339905,194.642136 829.702942,195.497162 
	C832.527344,195.825150 833.666260,199.658493 832.958008,202.897064 
	C832.671692,204.206055 831.919128,205.413086 831.269287,206.920471 
	C836.237183,209.115479 833.665466,214.350571 833.889282,218.592514 
	C834.092468,222.441147 830.453430,223.425400 827.809875,223.565826 
	C819.712341,223.995987 811.550171,224.210663 803.472656,223.650101 
	C798.409119,223.298706 797.396179,219.126846 798.222290,214.163940 
	C799.599121,214.071014 801.086975,213.970596 802.887085,213.849106 
	C798.367859,210.538239 796.289917,204.811447 798.147034,199.915756 
	C799.505798,196.334091 802.322937,194.289825 806.932739,194.972137 
M818.337646,206.002014 
	C819.877441,205.923782 821.417236,205.845535 824.138550,205.707260 
	C820.852478,200.099609 816.298279,202.482269 812.789612,202.150177 
	C811.401917,202.018845 809.853149,203.589188 808.377686,204.384720 
	C808.605896,204.923813 808.834045,205.462921 809.062195,206.002014 
	C811.840210,206.002014 814.618225,206.002014 818.337646,206.002014 
M818.177002,213.997986 
	C814.860168,213.997986 811.543274,213.997986 807.379639,213.997986 
	C812.364563,218.271286 819.585022,217.958984 823.134033,213.997986 
	C821.698242,213.997986 820.375610,213.997986 818.177002,213.997986 
z"/>
<path fill="#FEFEFF" opacity="1.000000" stroke="none" 
	d="
M686.645142,197.842438 
	C689.627808,192.533737 694.674194,194.503479 698.550171,194.214447 
	C704.751648,193.752014 711.060120,194.605225 717.315247,195.023468 
	C721.515015,195.304291 724.557556,199.704620 724.103943,203.998993 
	C723.773376,207.128220 723.755127,210.344284 724.063965,213.475632 
	C724.645081,219.367950 721.096069,223.854645 715.140015,223.969223 
	C708.148743,224.103745 701.151733,224.080307 694.159424,223.977646 
	C687.615112,223.881561 684.845459,221.163116 685.056213,214.695862 
	C685.236389,209.168106 685.906006,203.656281 686.645142,197.842438 
M706.384827,203.000809 
	C704.225098,203.000854 701.907227,202.511429 699.951477,203.143051 
	C698.113770,203.736542 695.680969,205.223190 695.205505,206.821350 
	C693.228699,213.465179 695.408020,215.996155 702.325989,215.999100 
	C703.987305,215.999802 705.658386,215.883392 707.308105,216.021683 
	C711.643921,216.385178 714.257935,215.247391 714.071716,210.117264 
	C713.838318,203.686295 713.520386,203.095459 706.384827,203.000809 
z"/>
<path fill="#FEFEFF" opacity="1.000000" stroke="none" 
	d="
M457.169556,195.965729 
	C467.205719,192.873688 477.006287,193.279190 486.576843,195.512985 
	C488.815857,196.035553 491.195221,199.950592 491.771332,202.672806 
	C492.645935,206.805618 492.123962,211.264786 491.965363,215.576843 
	C491.805817,219.914963 489.219818,223.401169 485.252869,223.699173 
	C477.011810,224.318222 468.671173,224.116013 460.402466,223.672974 
	C455.488403,223.409668 453.852692,219.647308 453.456299,215.059158 
	C452.879608,208.384323 452.197815,201.776230 457.169556,195.965729 
M478.024139,216.000412 
	C483.016266,213.488113 483.144836,212.009460 479.110321,202.998703 
	C475.329132,202.998703 471.500610,202.843414 467.698151,203.090195 
	C466.506683,203.167511 464.757050,204.056107 464.333984,205.035858 
	C461.549957,211.483276 464.655853,216.000626 471.636780,216.001556 
	C473.464722,216.001801 475.292664,216.001556 478.024139,216.000412 
z"/>
<path fill="#FDFDFD" opacity="1.000000" stroke="none" 
	d="
M902.390320,179.598938 
	C902.053162,163.317627 902.053162,147.382202 902.053162,131.222870 
	C907.729858,131.222870 913.121643,131.222870 918.726868,131.222870 
	C918.726868,147.457458 918.726868,163.505066 918.726868,179.944839 
	C913.283325,179.944839 908.005371,179.944839 902.390320,179.598938 
z"/>
<path fill="#FEFEFE" opacity="1.000000" stroke="none" 
	d="
M553.999023,213.476410 
	C553.998657,207.222931 553.998657,201.419937 553.998657,195.308289 
	C557.562866,195.308289 560.964844,195.308289 564.995239,195.308289 
	C564.995239,199.898300 564.955872,204.649185 565.005554,209.399155 
	C565.063965,214.987320 566.098755,216.045944 571.620178,215.973846 
	C574.651794,215.934250 577.680176,215.642883 580.412842,215.482483 
	C580.412842,208.387680 580.412842,202.161240 580.412842,195.463715 
	C583.624023,195.463715 586.995544,195.463715 591.001343,195.463715 
	C591.001343,200.885834 590.948730,206.639206 591.013306,212.391251 
	C591.117676,221.686478 588.818909,224.000641 579.306702,224.001358 
	C574.983643,224.001694 570.552246,224.598907 566.366760,223.840088 
	C561.819336,223.015656 557.500427,220.930054 552.938293,219.344467 
	C553.471863,216.620377 553.735657,215.273636 553.999023,213.476410 
z"/>
<path fill="#FDFDFD" opacity="1.000000" stroke="none" 
	d="
M629.003113,213.991211 
	C629.003113,217.460999 629.003113,220.438416 629.003113,223.708603 
	C625.738770,223.708603 622.664307,223.708603 619.191528,223.708603 
	C619.191528,217.089737 619.191528,210.343719 619.191528,203.002945 
	C615.566345,203.002945 612.296448,202.877457 609.041260,203.042709 
	C606.442749,203.174606 605.315430,202.125717 605.498352,199.597122 
	C605.664551,197.299362 605.499207,194.921143 609.040161,194.958130 
	C619.506653,195.067490 629.974976,194.997238 640.722046,194.997238 
	C640.722046,197.623596 640.722046,200.029449 640.722046,202.829773 
	C637.072083,202.829773 633.320129,202.829773 629.003113,202.829773 
	C629.003113,206.626282 629.003113,210.062561 629.003113,213.991211 
z"/>
<path fill="#FFFFFF" opacity="1.000000" stroke="none" 
	d="
M533.753967,223.999908 
	C525.660217,223.999954 518.040283,223.999954 510.213104,223.999954 
	C510.213104,214.230637 510.213104,204.827698 510.213104,195.489075 
	C510.638214,195.292938 510.917969,195.051407 511.198273,195.050751 
	C522.740295,195.023849 520.833374,193.756454 520.991821,204.755737 
	C521.043945,208.376129 521.000000,211.997910 521.000000,215.993896 
	C527.138855,215.993896 532.894104,215.993896 539.084045,215.993896 
	C538.443726,219.660751 541.195801,224.641281 533.753967,223.999908 
z"/>
<path fill="#FFFFFF" opacity="1.000000" stroke="none" 
	d="
M662.022461,224.000534 
	C660.229370,224.000534 658.913391,224.000534 657.298889,224.000534 
	C657.298889,214.417801 657.298889,205.008728 657.298889,195.298248 
	C660.590698,195.298248 663.997437,195.298248 667.702942,195.298248 
	C667.702942,204.603333 667.702942,214.012039 667.702942,224.000534 
	C666.025269,224.000534 664.262451,224.000534 662.022461,224.000534 
z"/>
<path fill="#0000FC" opacity="1.000000" stroke="none" 
	d="
M892.450806,178.301239 
	C892.115540,163.600525 892.066589,148.641098 892.092407,133.195663 
	C892.438110,133.276794 892.946716,133.844513 892.945251,134.410934 
	C892.908325,148.954865 892.818115,163.498672 892.450806,178.301239 
z"/>
<path fill="#000084" opacity="1.000000" stroke="none" 
	d="
M212.143829,191.844727 
	C211.846878,180.695068 211.928726,169.314819 211.928986,157.471893 
	C212.197952,157.285843 212.856476,157.564514 212.854691,157.838867 
	C212.781097,169.097534 212.648132,180.355804 212.143829,191.844727 
z"/>
<path fill="#000003" opacity="1.000000" stroke="none" 
	d="
M797.934631,152.357117 
	C797.600159,156.213333 797.772949,159.811859 796.673523,162.967072 
	C796.070435,164.697601 793.387390,166.698013 791.528076,166.818832 
	C784.561646,167.271500 777.547058,167.073166 770.552795,166.968338 
	C767.032715,166.915573 764.646240,165.618011 764.909729,161.373032 
	C765.175903,157.085007 764.769043,152.750763 765.112854,148.473404 
	C765.401428,144.883972 768.047607,143.902267 771.377014,143.978882 
	C776.371643,144.093750 781.371094,143.989105 786.368408,144.002487 
	C795.167542,144.026047 795.167542,144.033859 797.934631,152.357117 
z"/>
<path fill="#000000" opacity="1.000000" stroke="none" 
	d="
M692.031860,145.197205 
	C700.761414,144.483322 709.467224,144.059875 718.161194,144.233063 
	C719.329834,144.256332 721.120117,147.173889 721.416382,148.952164 
	C721.869751,151.673355 722.212524,155.067093 717.521729,155.009384 
	C709.238953,154.907501 700.953979,154.980850 692.004456,154.980850 
	C692.004456,151.819870 692.004456,148.747345 692.031860,145.197205 
z"/>
<path fill="#000017" opacity="1.000000" stroke="none" 
	d="
M585.984375,158.023956 
	C585.637939,158.909912 585.252808,159.845093 584.844788,159.855209 
	C580.537842,159.962006 576.227173,159.921326 571.272034,159.921326 
	C573.682312,154.997101 575.958862,150.345993 578.718384,144.708191 
	C581.528687,149.745483 583.731934,153.694595 585.984375,158.023956 
z"/>
<path fill="#010101" opacity="1.000000" stroke="none" 
	d="
M418.001404,201.999084 
	C420.923004,202.544373 424.897186,200.265137 425.001373,205.718353 
	C420.690765,205.718353 416.483368,205.718353 412.153381,205.718353 
	C411.402039,200.604568 415.207306,202.366394 418.001404,201.999084 
z"/>
<path fill="#080808" opacity="1.000000" stroke="none" 
	d="
M416.118927,213.985489 
	C419.544495,213.985489 422.510437,213.985489 425.476349,213.985489 
	C419.524933,218.090454 414.332947,217.839966 411.785675,214.214066 
	C413.201447,214.130524 414.430389,214.058014 416.118927,213.985489 
z"/>
<path fill="#010101" opacity="1.000000" stroke="none" 
	d="
M817.866943,206.002014 
	C814.618225,206.002014 811.840210,206.002014 809.062195,206.002014 
	C808.834045,205.462921 808.605896,204.923813 808.377686,204.384720 
	C809.853149,203.589188 811.401917,202.018845 812.789612,202.150177 
	C816.298279,202.482269 820.852478,200.099609 824.138550,205.707260 
	C821.417236,205.845535 819.877441,205.923782 817.866943,206.002014 
z"/>
<path fill="#010101" opacity="1.000000" stroke="none" 
	d="
M818.614990,213.997986 
	C820.375610,213.997986 821.698242,213.997986 823.134033,213.997986 
	C819.585022,217.958984 812.364563,218.271286 807.379639,213.997986 
	C811.543274,213.997986 814.860168,213.997986 818.614990,213.997986 
z"/>
<path fill="#000000" opacity="1.000000" stroke="none" 
	d="
M706.852295,203.000809 
	C713.520386,203.095459 713.838318,203.686295 714.071716,210.117264 
	C714.257935,215.247391 711.643921,216.385178 707.308105,216.021683 
	C705.658386,215.883392 703.987305,215.999802 702.325989,215.999100 
	C695.408020,215.996155 693.228699,213.465179 695.205505,206.821350 
	C695.680969,205.223190 698.113770,203.736542 699.951477,203.143051 
	C701.907227,202.511429 704.225098,203.000854 706.852295,203.000809 
z"/>
<path fill="#010101" opacity="1.000000" stroke="none" 
	d="
M477.572388,216.000977 
	C475.292664,216.001556 473.464722,216.001801 471.636780,216.001556 
	C464.655853,216.000626 461.549957,211.483276 464.333984,205.035858 
	C464.757050,204.056107 466.506683,203.167511 467.698151,203.090195 
	C471.500610,202.843414 475.329132,202.998703 479.110321,202.998703 
	C483.144836,212.009460 483.016266,213.488113 477.572388,216.000977 
z"/>
</svg>