<svg fill-rule="evenodd" version="1.1" id="Layer_1" xmlns="http://www.w3.org/2000/svg" xmlns:xlink="http://www.w3.org/1999/xlink" x="0px" y="0px"
	 width="100%" viewBox="0 0 1000 350" enable-background="new 0 0 1000 350" xml:space="preserve">
<path fill="#FFFFFF" opacity="1.000000" stroke="none" 
	d="
M212.454834,193.828552 
	C212.652695,193.543640 212.850555,193.258743 212.983185,192.992844 
	C212.983185,192.992844 213.007523,193.056274 213.604050,192.446259 
	C213.735947,183.307907 213.937927,174.169678 213.952408,165.031143 
	C213.956223,162.628540 213.379639,160.225006 212.641541,157.274490 
	C208.491150,155.835266 204.379654,154.267624 200.178680,152.995438 
	C196.486069,151.877167 192.940552,150.972488 192.106918,146.289780 
	C191.677612,143.878296 190.827957,141.402695 189.581970,139.304138 
	C186.876389,134.747253 187.570175,130.911713 190.318848,126.504913 
	C195.969360,117.445763 195.594864,117.433395 188.307281,109.637817 
	C185.810425,106.966904 184.346832,107.057175 181.926575,109.503098 
	C167.900986,123.677383 153.794083,137.771805 139.633881,151.811722 
	C137.241333,154.183929 136.888824,155.990631 139.650681,158.333328 
	C142.436615,160.696426 145.071289,163.284195 147.489029,166.023514 
	C150.643234,169.597183 153.273575,169.577484 156.547440,166.022766 
	C161.000198,161.188004 165.859589,156.727737 171.756104,150.911972 
	C172.666077,155.952393 172.827316,159.661240 174.038681,162.987686 
	C176.831284,170.656235 176.313950,178.165527 174.822845,185.990845 
	C174.246170,189.017197 175.026245,193.087082 176.764664,195.584000 
	C179.317154,199.250137 183.482132,201.747467 186.588974,205.087936 
	C189.229034,207.926575 191.081497,207.887344 192.321182,204.265274 
	C193.755386,200.074905 196.158936,197.933838 200.839157,197.520859 
	C203.941696,197.247086 206.894028,195.271103 210.241623,194.494949 
	C210.846786,194.332672 211.451965,194.170410 211.993713,193.983459 
	C211.993713,193.983459 211.974136,194.048615 212.454834,193.828552 
M630.992065,146.046143 
	C630.995361,155.598450 630.950256,165.151245 631.046570,174.702621 
	C631.063782,176.417206 631.663818,178.125916 632.924744,179.934113 
	C636.416016,179.952316 639.915222,179.831482 643.396423,180.027893 
	C646.859558,180.223297 648.090332,178.800842 648.033630,175.373581 
	C647.890625,166.730164 648.083252,158.081512 647.976074,149.436996 
	C647.937195,146.296768 649.014648,144.855423 652.295044,144.982925 
	C656.279053,145.137756 660.311951,144.653809 664.256042,145.076935 
	C670.202637,145.714890 670.062439,142.148560 670.055054,138.007538 
	C670.047607,133.888184 670.234741,130.704987 664.280884,130.865021 
	C649.659729,131.258041 635.020874,130.988968 620.389099,130.989578 
	C610.429810,130.990005 610.564209,130.987213 610.951599,140.800018 
	C611.083679,144.147781 612.467896,145.078323 615.522949,145.022202 
	C620.673340,144.927597 625.828308,145.082184 630.992065,146.046143 
M822.403503,131.730362 
	C822.306458,147.199936 822.199890,162.669495 822.150269,178.139221 
	C822.148499,178.704208 822.705200,179.270996 823.932495,179.933624 
	C825.262756,179.957367 826.592957,179.996628 827.923279,180.002411 
	C840.091248,180.055313 840.076843,180.053711 839.997253,167.872406 
	C839.960022,162.176605 839.990845,156.480377 839.990845,149.442703 
	C841.931824,151.286392 842.939270,152.049530 843.707703,153.004959 
	C848.437256,158.885269 853.627380,164.480164 857.670288,170.805298 
	C862.256226,177.979858 867.864258,181.449646 876.463745,180.073486 
	C881.280762,179.302628 886.205933,179.207535 891.734802,178.298752 
	C891.815247,163.718063 891.905090,149.137405 891.937561,134.556595 
	C891.938721,134.031693 891.374207,133.505539 890.746643,132.243118 
	C887.225647,131.825287 883.711121,131.133331 880.182190,131.049408 
	C873.776489,130.897064 873.849304,131.658920 874.336182,137.959152 
	C874.965515,146.104050 874.489624,154.334351 874.489624,163.208832 
	C872.909119,161.365616 871.723999,160.110413 870.681274,158.746399 
	C864.801453,151.055054 859.169800,143.158813 852.968994,135.737305 
	C851.094177,133.493439 847.763306,131.438446 844.945007,131.211182 
	C837.677429,130.625153 830.323486,131.108826 822.403503,131.730362 
M113.012047,171.487823 
	C128.265823,187.052689 143.519608,202.617554 159.436554,218.859116 
	C154.851761,222.287476 150.558243,226.131683 145.684067,228.983459 
	C139.498474,232.602509 132.657471,234.597641 125.649864,236.546829 
	C117.774429,238.737381 110.271332,239.357651 102.473816,238.107391 
	C98.719528,237.505432 95.161942,235.560745 91.407585,235.098129 
	C82.070007,233.947571 75.073341,228.185684 68.646431,222.535278 
	C62.651192,217.264420 58.469715,209.892731 53.678314,203.308640 
	C51.714767,200.610458 50.273663,199.975098 47.492943,202.507599 
	C41.980450,207.528046 36.560295,212.436890 33.657509,219.623627 
	C32.057442,223.585098 29.631937,227.213181 27.254766,231.587387 
	C27.584620,232.237183 28.021503,233.932587 29.076197,235.039154 
	C35.608093,241.892273 42.262444,248.629211 48.908905,255.372421 
	C53.898270,260.434418 54.594395,260.219971 60.560493,256.105408 
	C63.619736,253.995560 67.699898,251.195618 70.767464,251.751129 
	C76.038986,252.705811 80.960197,255.886200 85.877251,258.425140 
	C90.809570,260.971924 90.587090,266.339294 91.963425,270.766235 
	C92.814407,273.503387 93.464355,276.066956 97.197098,276.028259 
	C106.692543,275.929779 116.190796,275.907013 125.685577,276.032257 
	C129.787750,276.086365 130.814133,273.299561 131.747406,270.263550 
	C131.965622,269.553680 131.793320,268.709351 132.064133,268.032288 
	C134.522110,261.887268 136.598770,255.563995 144.829956,254.639328 
	C148.289337,254.250732 151.780640,251.310379 154.935944,251.764359 
	C158.934250,252.339615 162.454971,255.718063 166.473602,256.861511 
	C168.884781,257.547607 172.782211,257.255127 174.407730,255.712418 
	C180.953583,249.500046 186.929718,242.678848 192.971680,235.952652 
	C193.956177,234.856659 195.096100,232.719086 194.659607,231.720840 
	C191.957062,225.540222 190.076767,218.344315 185.616440,213.702209 
	C166.882065,194.204361 147.249374,175.573044 128.112640,156.457214 
	C115.672607,144.030777 103.502411,131.333572 91.284256,118.687218 
	C90.533142,117.909790 90.017677,116.455566 90.164558,115.426422 
	C90.254120,114.799004 91.766724,114.152809 92.737907,113.916054 
	C95.318596,113.286926 98.001129,113.052017 100.556313,112.345993 
	C110.516266,109.593948 120.420624,110.710846 129.811020,114.045700 
	C137.625870,116.821022 144.831848,121.285576 152.404205,124.793182 
	C153.698227,125.392586 156.128708,125.631218 156.932739,124.871216 
	C164.782700,117.451401 172.398529,109.783905 181.187012,101.093178 
	C178.406738,98.902687 175.707047,97.351456 173.784851,95.128052 
	C170.804321,91.680443 168.356354,91.939606 164.350922,93.855400 
	C158.441803,96.681732 153.062897,99.953384 144.942322,96.652168 
	C136.785080,93.336037 132.348480,89.599823 131.394287,81.043694 
	C130.828827,75.973289 128.168625,73.277435 122.215652,73.860138 
	C115.284676,74.538589 108.236374,74.018478 101.238983,74.018372 
	C93.259598,74.018250 93.090149,73.972527 91.030937,81.613014 
	C89.251190,88.216522 87.303169,94.324150 79.184067,95.552620 
	C77.249931,95.845268 75.525917,97.605492 73.599007,97.848640 
	C70.648628,98.220932 67.438286,98.452751 64.646286,97.659760 
	C61.382011,96.732628 58.565102,94.290985 55.319767,93.209793 
	C53.804813,92.705063 51.588356,93.551414 49.967655,94.349518 
	C48.589199,95.028313 47.766235,96.772598 46.422153,97.596016 
	C42.996861,99.694427 43.350452,101.809029 45.855797,104.369797 
	C58.763115,117.562660 71.525566,130.899109 84.548798,143.976074 
	C93.692108,153.157120 103.172035,162.002914 113.012047,171.487823 
M78.999489,178.501617 
	C82.309319,181.684433 85.679741,184.807007 88.916092,188.062866 
	C95.231117,194.415970 101.589401,200.733582 107.690582,207.288513 
	C110.585922,210.399200 112.734901,210.221100 115.404747,207.156036 
	C117.916718,204.272217 120.634651,201.534027 123.501373,199.002914 
	C126.127510,196.684250 126.037071,194.699295 123.675575,192.350159 
	C110.979164,179.720154 98.232338,167.139160 85.664627,154.381927 
	C72.305901,140.821777 59.151665,127.060425 45.861408,113.432503 
	C38.763176,106.153923 38.718979,106.197617 30.972519,112.903450 
	C30.848850,113.010513 30.684595,113.069595 30.543364,113.157631 
	C26.956087,115.393707 26.485826,117.886620 29.299604,121.315453 
	C35.135860,128.427444 36.682945,135.452148 31.245359,144.247116 
	C27.730801,149.931702 24.597891,153.862549 17.662163,154.428680 
	C12.781301,154.827072 10.551888,157.811890 10.882966,163.165283 
	C11.344980,170.635880 10.996600,178.156448 10.998495,185.655640 
	C11.000580,193.898758 11.043963,193.785782 18.807323,196.648697 
	C23.481859,198.372513 28.820549,199.286346 30.741014,205.196701 
	C30.897120,205.677139 34.883488,205.869507 35.986046,204.917343 
	C40.337471,201.159531 44.288731,196.930466 48.285450,192.777100 
	C49.006195,192.028076 49.736961,190.748001 49.617134,189.822647 
	C49.038696,185.355774 47.598118,180.935089 47.530453,176.481812 
	C47.406654,168.334015 47.821793,160.133148 51.896656,151.908112 
	C61.103539,160.938751 69.801636,169.470337 78.999489,178.501617 
M260.149384,174.049835 
	C260.149384,166.419617 260.149384,158.789383 260.149384,151.159164 
	C260.695587,151.064407 261.241821,150.969650 261.788025,150.874893 
	C265.840393,157.823090 270.291962,164.575546 273.824127,171.778839 
	C276.879669,178.010147 280.679047,181.243591 288.028656,180.177277 
	C291.188751,179.718796 293.317841,178.849991 294.824249,176.203766 
	C296.383911,173.463989 297.944153,170.724518 299.508667,167.987534 
	C302.814911,162.203598 306.124146,156.421371 309.432129,150.638443 
	C310.114349,150.798355 310.796539,150.958267 311.478729,151.118179 
	C310.861023,158.226547 310.779327,165.436050 309.462860,172.412582 
	C308.327179,178.431152 308.855560,179.954712 314.953369,179.997406 
	C317.618256,180.016068 320.285400,179.920563 322.948029,179.997406 
	C325.546631,180.072449 327.004517,179.226913 326.992554,176.320709 
	C326.935608,162.495712 326.941589,148.670197 327.000000,134.845184 
	C327.011658,132.085510 325.854004,130.958359 323.119385,130.994019 
	C317.290558,131.070038 311.436066,130.704926 305.642944,131.163376 
	C303.636139,131.322205 301.027863,132.929184 299.988495,134.654388 
	C296.076324,141.148239 292.742523,147.988190 289.085632,154.639984 
	C288.222870,156.209305 286.944733,157.550262 285.257050,159.795242 
	C280.311981,150.616486 276.074036,142.395767 271.423370,134.415619 
	C270.487671,132.810043 268.049438,131.304840 266.192566,131.157501 
	C260.729767,130.724091 255.199829,131.210434 249.717773,130.923721 
	C245.458252,130.700943 243.784988,132.020294 243.915817,136.530121 
	C244.205475,146.515961 244.001144,156.516113 244.000488,166.510422 
	C243.999527,181.175232 244.000549,181.177521 258.723755,179.759964 
	C259.018005,179.731628 259.288574,179.457581 259.872162,179.127258 
	C259.958130,177.847641 260.056305,176.386322 260.149384,174.049835 
M746.388794,150.418716 
	C746.512939,155.539047 746.427612,160.675018 746.808655,165.776154 
	C747.432251,174.121490 751.012268,178.812164 757.556885,179.765137 
	C762.298584,180.455597 767.120239,180.954407 771.902893,180.928558 
	C781.013428,180.879333 790.121033,180.183426 799.230957,180.157639 
	C806.241821,180.137787 812.677063,175.187668 812.930176,168.338364 
	C813.246582,159.775009 813.144836,151.188583 812.968506,142.617355 
	C812.854858,137.092300 807.092346,130.985657 801.747986,130.568741 
	C797.153931,130.210327 792.528442,130.010544 787.923157,130.093216 
	C779.475342,130.244827 771.026428,131.010040 762.588501,130.873810 
	C750.830872,130.683990 746.727295,139.066040 746.388794,150.418716 
M734.146912,179.971527 
	C736.909424,180.125214 737.981262,178.771576 737.994263,176.064987 
	C738.020081,170.716125 737.874695,165.468765 734.860535,162.647400 
	C736.356079,156.301071 738.736816,150.955139 738.611328,145.668701 
	C738.397766,136.674255 734.058655,130.985535 726.513672,130.903900 
	C711.372437,130.740082 696.226379,131.049484 681.084351,130.922333 
	C677.134705,130.889175 675.880005,132.277802 675.941040,136.134384 
	C676.120239,147.449249 675.922607,158.769516 676.018738,170.086426 
	C676.113159,181.200287 674.452148,179.739609 686.298279,180.077255 
	C690.536377,180.198074 692.628174,179.019165 692.033569,174.505188 
	C691.581055,171.069794 693.266052,169.716766 696.646118,169.773285 
	C702.802307,169.876282 708.985291,170.102493 715.111206,169.652786 
	C718.870850,169.376785 720.760986,170.842407 720.611328,174.128967 
	C720.359924,179.652878 723.319885,180.462265 727.736328,180.034775 
	C729.550537,179.859177 731.395142,179.997635 734.146912,179.971527 
M355.262451,163.726624 
	C357.006287,163.143112 358.739685,162.094788 360.495758,162.055267 
	C368.813538,161.868057 377.141327,161.798004 385.457947,161.999481 
	C391.450134,162.144638 389.729950,157.903702 389.994110,154.739502 
	C390.271545,151.416702 389.903168,148.993286 385.370972,149.148315 
	C376.727051,149.443985 368.060791,149.337738 359.414520,149.061935 
	C357.991730,149.016541 356.623596,147.256683 355.230225,146.289169 
	C356.637756,145.530655 358.031769,144.145676 359.455017,144.114960 
	C368.937622,143.910492 378.434540,143.755371 387.910187,144.076263 
	C393.599854,144.268951 392.818298,140.672821 392.931061,137.193375 
	C393.048584,133.568451 392.926270,130.809143 387.846832,130.898392 
	C372.705841,131.164413 357.556274,131.082443 342.412170,130.929413 
	C338.585999,130.890762 337.022491,132.133957 337.063721,136.064972 
	C337.199982,149.045486 337.232910,162.030167 337.039459,175.009262 
	C336.979156,179.053894 338.593445,180.097473 342.346619,180.061401 
	C357.490875,179.915909 372.640564,179.824463 387.781158,180.100922 
	C392.680847,180.190399 393.071259,177.817932 393.075348,173.996094 
	C393.079437,170.158981 392.658386,167.728989 387.766052,167.903870 
	C378.457764,168.236572 369.128754,167.999817 359.808411,167.975342 
	C357.460968,167.969177 354.852661,168.227768 355.262451,163.726624 
M424.010986,130.332977 
	C421.205658,130.521103 418.400879,130.859039 415.594940,130.868805 
	C407.703949,130.896286 400.644470,137.917694 400.709991,145.776733 
	C400.764008,152.259323 400.767914,158.742340 400.805939,165.225082 
	C400.850800,172.869400 405.246338,178.875778 412.089935,179.871353 
	C417.158844,180.608749 422.328064,180.914276 427.454803,180.938614 
	C435.887238,180.978607 444.331390,180.826538 452.751770,180.391235 
	C459.217255,180.057007 463.310303,173.708633 463.028809,165.577316 
	C462.754272,157.647751 456.719910,162.244415 453.375275,161.044983 
	C452.494751,160.729202 451.282196,160.745438 450.423126,161.098404 
	C449.024445,161.673111 447.019775,162.383331 446.630463,163.507294 
	C445.378204,167.122665 442.780334,167.082642 439.832123,166.939148 
	C437.574951,166.829285 435.302643,167.036606 433.044708,166.934357 
	C428.982635,166.750412 424.688751,167.182846 420.931763,165.981583 
	C416.865784,164.681534 415.121826,150.677444 418.211334,147.512817 
	C418.965546,146.740265 420.175171,146.009613 421.202332,145.970734 
	C428.621002,145.689835 436.046295,145.553284 443.470490,145.487473 
	C444.334167,145.479813 445.781128,145.993393 445.978516,146.589523 
	C447.360748,150.764191 450.760986,149.957520 453.805511,149.981369 
	C464.488464,150.065048 464.488617,150.047882 462.048492,139.947784 
	C460.837067,134.933533 456.718903,130.873520 451.754395,130.667511 
	C442.818787,130.296738 433.866180,130.335419 424.010986,130.332977 
M975.850403,130.964203 
	C964.750366,130.988403 953.646362,130.837448 942.551514,131.089478 
	C932.815308,131.310638 928.358887,135.836273 928.022644,145.547623 
	C927.794556,152.133072 928.104248,158.737091 927.878357,165.322708 
	C927.606689,173.246719 932.461304,179.656265 940.161011,179.861237 
	C953.247925,180.209625 966.359497,180.236084 979.443909,179.840546 
	C987.265442,179.604111 992.495178,170.568253 989.782654,163.028549 
	C989.573425,162.447006 989.110107,161.528595 988.721741,161.505875 
	C984.747437,161.273575 980.739380,160.905090 976.797791,161.241760 
	C975.553650,161.348038 974.634827,163.687164 973.288330,164.587418 
	C971.738525,165.623489 969.904785,166.791641 968.150879,166.865051 
	C961.935974,167.125229 955.673523,167.272964 949.493896,166.727997 
	C947.630859,166.563690 944.739685,164.204041 944.474304,162.512100 
	C943.817444,158.323563 944.417175,153.939880 944.490356,149.634247 
	C944.538025,146.826843 945.757202,145.400284 948.746216,145.414581 
	C955.547791,145.447128 962.351807,145.216690 969.150452,145.338181 
	C970.378540,145.360138 971.813965,146.319901 972.757202,147.249115 
	C975.021973,149.480331 984.860535,151.190903 987.578247,149.573318 
	C987.976868,149.336044 988.578491,148.876816 988.550110,148.569916 
	C988.160767,144.366318 988.578796,139.777176 986.964233,136.084839 
	C985.334351,132.357529 981.414978,130.045151 975.850403,130.964203 
M519.796570,164.967392 
	C519.878784,168.795944 520.067810,172.626053 520.011536,176.452576 
	C519.960510,179.929184 522.312317,180.460968 524.665894,179.899033 
	C528.733093,178.927948 534.066528,183.040421 536.866028,176.970825 
	C536.931091,176.829803 536.902405,176.641434 536.902405,176.475143 
	C536.901672,162.481247 536.989685,148.485718 536.734253,134.496429 
	C536.712646,133.315140 534.259399,131.079697 533.158813,131.210495 
	C528.831055,131.724792 523.827209,128.616241 520.253784,133.149582 
	C519.665466,133.895981 520.023315,135.417374 520.009033,136.581390 
	C519.974426,139.413284 519.902649,142.247925 519.988220,145.077148 
	C520.070312,147.791824 518.948853,149.015793 516.167358,148.990021 
	C508.504486,148.918976 500.838562,148.870636 493.177734,149.017563 
	C489.771759,149.082901 488.882263,147.458649 488.970520,144.430237 
	C489.094971,140.160461 489.002014,135.884323 489.002014,131.062027 
	C484.013153,131.062027 479.537018,130.821564 475.120728,131.229248 
	C474.001343,131.332565 472.207855,133.487076 472.188721,134.721771 
	C471.974335,148.546051 471.969971,162.375885 472.172089,176.200394 
	C472.190460,177.456024 473.859283,179.554214 475.053864,179.791763 
	C486.826813,182.132889 488.955719,180.515167 488.909027,168.980011 
	C488.891083,164.547928 490.216553,162.554565 494.888977,162.737671 
	C501.376465,162.991928 507.883453,162.712311 514.377563,162.859726 
	C516.096924,162.898773 517.799866,163.665390 519.796570,164.967392 
M596.468384,178.255554 
	C602.719910,181.651688 609.095703,179.720535 616.074646,179.444443 
	C614.981750,176.609695 614.443237,174.499664 613.415894,172.663116 
	C606.290955,159.926102 599.174133,147.181015 591.743103,134.622955 
	C590.719604,132.893387 588.064331,131.390060 586.010254,131.160156 
	C581.410583,130.645370 576.672302,130.636749 572.075623,131.164307 
	C570.032898,131.398758 567.441833,132.972290 566.387024,134.716553 
	C558.903320,147.091476 551.711792,159.644409 544.536621,172.203140 
	C543.284912,174.393997 542.549744,176.879990 541.260376,179.991348 
	C547.186523,179.991348 552.177185,180.298386 557.094055,179.830688 
	C558.901001,179.658798 561.271545,178.028366 562.090576,176.408676 
	C563.734619,173.157623 565.687012,171.737671 569.409790,171.926697 
	C575.216309,172.221497 581.067200,172.287750 586.864563,171.912827 
	C591.541443,171.610367 594.468384,173.281937 596.468384,178.255554 
M319.500031,204.092346 
	C296.681030,204.092667 273.862030,204.082092 251.043015,204.099869 
	C244.013382,204.105347 243.782181,204.362686 244.022247,211.454285 
	C244.059265,212.547653 244.371124,213.631729 244.544968,214.655853 
	C294.100128,214.655853 343.321014,214.655853 392.488251,214.655853 
	C394.000244,204.271667 393.852051,204.093399 383.960205,204.092773 
	C362.806824,204.091461 341.653442,204.092361 319.500031,204.092346 
M866.500000,215.012085 
	C907.573975,215.012085 948.648010,215.012085 989.634949,215.012085 
	C990.636536,204.094849 990.636536,204.092880 980.749023,204.092712 
	C937.422729,204.091949 894.096375,204.091644 850.770081,204.093033 
	C841.577271,204.093338 841.571533,204.097244 842.078552,213.143585 
	C842.104248,213.602417 842.372314,214.047668 842.703857,215.012085 
	C850.250610,215.012085 857.875305,215.012085 866.500000,215.012085 
M744.734131,196.001099 
	C743.500305,196.883514 741.226440,197.730804 741.195251,198.653839 
	C740.916382,206.913422 741.032715,215.186340 741.032715,223.549759 
	C744.663696,223.549759 747.680359,223.549759 751.440186,223.549759 
	C751.440186,218.583450 751.440186,214.062729 751.440186,209.542007 
	C751.882690,209.167297 752.325256,208.792587 752.767761,208.417877 
	C759.103210,219.273712 766.386841,228.191315 780.577759,223.071518 
	C780.577759,214.367783 780.577759,205.352463 780.577759,196.377014 
	C776.910217,196.377014 773.673462,196.377014 769.724731,196.377014 
	C769.724731,201.535492 769.724731,206.330597 769.724731,212.269226 
	C767.939697,210.285858 766.857239,209.438950 766.233704,208.333252 
	C761.704651,200.302261 756.311584,193.808075 744.734131,196.001099 
M418.487244,223.999146 
	C421.484650,223.993622 424.520050,224.284378 427.469574,223.905685 
	C430.959473,223.457626 434.553528,223.236130 436.455353,219.072159 
	C438.378052,214.862579 437.807648,211.921402 433.783783,207.118484 
	C434.831909,205.566833 436.763336,203.924118 436.476990,202.903870 
	C435.609528,199.813370 434.387085,196.233459 430.328033,196.087997 
	C423.432312,195.840897 416.492828,195.590530 409.633545,196.128723 
	C406.736877,196.356003 401.694580,198.461960 401.619568,199.919449 
	C401.398773,204.209198 397.250732,209.705139 402.545410,212.166382 
	C401.952454,215.088120 400.537720,217.745880 401.308960,219.357742 
	C402.259430,221.344284 404.849579,223.271149 407.056427,223.762314 
	C410.391449,224.504593 414.007599,223.983612 418.487244,223.999146 
M456.201416,197.577805 
	C452.440979,203.369263 452.928619,209.521744 453.688171,216.095306 
	C454.380493,222.086777 457.872070,223.666718 462.554077,223.897812 
	C469.520233,224.241669 476.537079,224.316467 483.491364,223.868912 
	C487.907654,223.584702 491.836212,221.508652 492.299103,216.296585 
	C492.663910,212.188812 493.390839,207.850525 492.455933,203.976883 
	C491.765350,201.115509 489.050964,197.184494 486.557465,196.591171 
	C476.756714,194.259155 466.703339,193.661362 456.201416,197.577805 
M717.098938,196.015091 
	C710.820557,195.680069 704.523193,194.889420 698.269775,195.151001 
	C693.057495,195.369003 686.590881,195.102539 684.979919,201.877029 
	C684.025635,205.890015 684.943909,210.344971 684.996155,214.601486 
	C685.074463,220.986298 687.564331,223.776596 693.899963,223.951553 
	C700.554688,224.135315 707.278381,224.554855 713.862488,223.849518 
	C721.580017,223.022751 724.230530,220.780807 724.005554,213.041824 
	C723.942688,210.879410 723.709412,208.674469 724.021912,206.558044 
	C724.792480,201.338242 722.612549,198.021103 717.098938,196.015091 
M806.487732,195.956787 
	C802.717102,195.444229 799.430176,197.014648 798.510925,200.368286 
	C797.249146,204.971588 796.855652,210.016449 802.484802,213.687881 
	C796.888123,213.622543 797.135620,217.160110 798.560913,219.576523 
	C799.754395,221.599915 802.682312,223.582474 804.994446,223.777390 
	C811.605164,224.334610 818.326172,224.354599 824.935242,223.787109 
	C827.636841,223.555130 831.958374,221.700470 832.407043,219.831360 
	C833.458313,215.451263 834.708374,210.217972 830.124695,206.491135 
	C833.388611,202.819916 832.349243,196.790863 827.988098,196.309677 
	C821.177429,195.558243 814.241089,195.945526 806.487732,195.956787 
M902.002991,172.373718 
	C902.053955,179.993057 902.053955,179.993271 909.570068,180.003311 
	C910.400513,180.004410 911.242371,179.911423 912.059448,180.015503 
	C916.496216,180.580826 918.214111,178.907532 918.087524,174.222702 
	C917.791504,163.269119 918.079834,152.301224 917.974304,141.340622 
	C917.862671,129.739883 919.666626,131.265289 907.669861,130.919800 
	C903.393494,130.796646 901.812866,132.064087 901.916687,136.530930 
	C902.186768,148.150574 902.004456,159.780716 902.002991,172.373718 
M585.281128,223.265121 
	C587.338318,221.294769 590.930725,219.493149 591.169312,217.322922 
	C591.932495,210.378738 591.452637,203.297928 591.452637,196.344711 
	C586.876282,196.344711 583.636047,196.344711 579.930420,196.344711 
	C579.930420,201.979309 579.955139,207.272125 579.906738,212.564255 
	C579.898376,213.468994 579.652649,215.133636 579.390442,215.159332 
	C575.645447,215.526230 571.765442,216.261673 568.174316,215.572601 
	C566.786438,215.306320 565.378601,211.760086 565.143616,209.582611 
	C564.672913,205.219360 565.003845,200.769608 565.003845,196.349716 
	C561.284363,196.349716 558.380249,196.349716 554.982483,196.349716 
	C554.982483,202.304794 555.187012,207.929977 554.928528,213.533829 
	C554.634094,219.915848 557.478210,223.775345 563.670532,223.929779 
	C570.635010,224.103470 577.610901,223.821960 585.281128,223.265121 
M618.980713,206.817520 
	C618.980713,212.408310 618.980713,217.999084 618.980713,223.666290 
	C622.673218,223.666290 625.576477,223.666290 629.186157,223.666290 
	C629.186157,216.988571 629.186157,210.615021 629.186157,203.752045 
	C633.484863,203.752045 637.068420,203.752045 640.651123,203.752045 
	C640.651123,200.974655 640.651123,198.734329 640.651123,195.970352 
	C628.604980,196.576874 616.823608,194.814651 605.443298,196.966415 
	C605.267822,203.241714 608.235535,204.497986 613.025879,204.127350 
	C614.937012,203.979462 616.958374,205.255310 618.980713,206.817520 
M510.005859,200.719574 
	C510.005859,208.310089 510.005859,215.900620 510.005859,223.995422 
	C517.960571,223.995422 525.237915,224.003113 532.515259,223.993179 
	C539.222229,223.984009 539.813049,223.202377 538.159607,215.908234 
	C532.718689,215.908234 527.138916,215.908234 520.975952,215.908234 
	C520.975952,210.273727 521.040588,205.162827 520.953674,200.054520 
	C520.893982,196.546280 518.683167,195.683533 515.584167,195.984665 
	C512.996948,196.236053 509.437775,194.925598 510.005859,200.719574 
M663.390625,224.001877 
	C664.798157,223.856598 666.205627,223.711319 667.425537,223.585403 
	C667.425537,214.161697 667.425537,205.278183 667.425537,196.398956 
	C663.784058,196.398956 660.568542,196.398956 657.303223,196.398956 
	C657.303223,205.693542 657.303223,214.579498 657.303223,223.758240 
	C659.231689,223.849640 660.851440,223.926422 663.390625,224.001877 
z"/>
<path fill="#B8B8C0" opacity="1.000000" stroke="none" 
	d="
M112.756851,171.243134 
	C103.172035,162.002914 93.692108,153.157120 84.548798,143.976074 
	C71.525566,130.899109 58.763115,117.562660 45.855797,104.369797 
	C43.350452,101.809029 42.996861,99.694427 46.422153,97.596016 
	C47.766235,96.772598 48.589199,95.028313 49.967655,94.349518 
	C51.588356,93.551414 53.804813,92.705063 55.319767,93.209793 
	C58.565102,94.290985 61.382011,96.732628 64.646286,97.659760 
	C67.438286,98.452751 70.648628,98.220932 73.599007,97.848640 
	C75.525917,97.605492 77.249931,95.845268 79.184067,95.552620 
	C87.303169,94.324150 89.251190,88.216522 91.030937,81.613014 
	C93.090149,73.972527 93.259598,74.018250 101.238983,74.018372 
	C108.236374,74.018478 115.284676,74.538589 122.215652,73.860138 
	C128.168625,73.277435 130.828827,75.973289 131.394287,81.043694 
	C132.348480,89.599823 136.785080,93.336037 144.942322,96.652168 
	C153.062897,99.953384 158.441803,96.681732 164.350922,93.855400 
	C168.356354,91.939606 170.804321,91.680443 173.784851,95.128052 
	C175.707047,97.351456 178.406738,98.902687 181.187012,101.093178 
	C172.398529,109.783905 164.782700,117.451401 156.932739,124.871216 
	C156.128708,125.631218 153.698227,125.392586 152.404205,124.793182 
	C144.831848,121.285576 137.625870,116.821022 129.811020,114.045700 
	C120.420624,110.710846 110.516266,109.593948 100.556313,112.345993 
	C98.001129,113.052017 95.318596,113.286926 92.737907,113.916054 
	C91.766724,114.152809 90.254120,114.799004 90.164558,115.426422 
	C90.017677,116.455566 90.533142,117.909790 91.284256,118.687218 
	C103.502411,131.333572 115.672607,144.030777 128.112640,156.457214 
	C147.249374,175.573044 166.882065,194.204361 185.616440,213.702209 
	C190.076767,218.344315 191.957062,225.540222 194.659607,231.720840 
	C195.096100,232.719086 193.956177,234.856659 192.971680,235.952652 
	C186.929718,242.678848 180.953583,249.500046 174.407730,255.712418 
	C172.782211,257.255127 168.884781,257.547607 166.473602,256.861511 
	C162.454971,255.718063 158.934250,252.339615 154.935944,251.764359 
	C151.780640,251.310379 148.289337,254.250732 144.829956,254.639328 
	C136.598770,255.563995 134.522110,261.887268 132.064133,268.032288 
	C131.793320,268.709351 131.965622,269.553680 131.747406,270.263550 
	C130.814133,273.299561 129.787750,276.086365 125.685577,276.032257 
	C116.190796,275.907013 106.692543,275.929779 97.197098,276.028259 
	C93.464355,276.066956 92.814407,273.503387 91.963425,270.766235 
	C90.587090,266.339294 90.809570,260.971924 85.877251,258.425140 
	C80.960197,255.886200 76.038986,252.705811 70.767464,251.751129 
	C67.699898,251.195618 63.619736,253.995560 60.560493,256.105408 
	C54.594395,260.219971 53.898270,260.434418 48.908905,255.372421 
	C42.262444,248.629211 35.608093,241.892273 29.076197,235.039154 
	C28.021503,233.932587 27.584620,232.237183 27.254766,231.587387 
	C29.631937,227.213181 32.057442,223.585098 33.657509,219.623627 
	C36.560295,212.436890 41.980450,207.528046 47.492943,202.507599 
	C50.273663,199.975098 51.714767,200.610458 53.678314,203.308640 
	C58.469715,209.892731 62.651192,217.264420 68.646431,222.535278 
	C75.073341,228.185684 82.070007,233.947571 91.407585,235.098129 
	C95.161942,235.560745 98.719528,237.505432 102.473816,238.107391 
	C110.271332,239.357651 117.774429,238.737381 125.649864,236.546829 
	C132.657471,234.597641 139.498474,232.602509 145.684067,228.983459 
	C150.558243,226.131683 154.851761,222.287476 159.436554,218.859116 
	C143.519608,202.617554 128.265823,187.052689 112.756851,171.243134 
z"/>
<path fill="#5BB3F0" opacity="1.000000" stroke="none" 
	d="
M78.749611,178.251770 
	C69.801636,169.470337 61.103539,160.938751 51.896656,151.908112 
	C47.821793,160.133148 47.406654,168.334015 47.530453,176.481812 
	C47.598118,180.935089 49.038696,185.355774 49.617134,189.822647 
	C49.736961,190.748001 49.006195,192.028076 48.285450,192.777100 
	C44.288731,196.930466 40.337471,201.159531 35.986046,204.917343 
	C34.883488,205.869507 30.897120,205.677139 30.741014,205.196701 
	C28.820549,199.286346 23.481859,198.372513 18.807323,196.648697 
	C11.043963,193.785782 11.000580,193.898758 10.998495,185.655640 
	C10.996600,178.156448 11.344980,170.635880 10.882966,163.165283 
	C10.551888,157.811890 12.781301,154.827072 17.662163,154.428680 
	C24.597891,153.862549 27.730801,149.931702 31.245359,144.247116 
	C36.682945,135.452148 35.135860,128.427444 29.299604,121.315453 
	C26.485826,117.886620 26.956087,115.393707 30.543364,113.157631 
	C30.684595,113.069595 30.848850,113.010513 30.972519,112.903450 
	C38.718979,106.197617 38.763176,106.153923 45.861408,113.432503 
	C59.151665,127.060425 72.305901,140.821777 85.664627,154.381927 
	C98.232338,167.139160 110.979164,179.720154 123.675575,192.350159 
	C126.037071,194.699295 126.127510,196.684250 123.501373,199.002914 
	C120.634651,201.534027 117.916718,204.272217 115.404747,207.156036 
	C112.734901,210.221100 110.585922,210.399200 107.690582,207.288513 
	C101.589401,200.733582 95.231117,194.415970 88.916092,188.062866 
	C85.679741,184.807007 82.309319,181.684433 78.749611,178.251770 
z"/>
<path fill="#5BB3F0" opacity="1.000000" stroke="none" 
	d="
M209.913605,194.057129 
	C206.894028,195.271103 203.941696,197.247086 200.839157,197.520859 
	C196.158936,197.933838 193.755386,200.074905 192.321182,204.265274 
	C191.081497,207.887344 189.229034,207.926575 186.588974,205.087936 
	C183.482132,201.747467 179.317154,199.250137 176.764664,195.584000 
	C175.026245,193.087082 174.246170,189.017197 174.822845,185.990845 
	C176.313950,178.165527 176.831284,170.656235 174.038681,162.987686 
	C172.827316,159.661240 172.666077,155.952393 171.756104,150.911972 
	C165.859589,156.727737 161.000198,161.188004 156.547440,166.022766 
	C153.273575,169.577484 150.643234,169.597183 147.489029,166.023514 
	C145.071289,163.284195 142.436615,160.696426 139.650681,158.333328 
	C136.888824,155.990631 137.241333,154.183929 139.633881,151.811722 
	C153.794083,137.771805 167.900986,123.677383 181.926575,109.503098 
	C184.346832,107.057175 185.810425,106.966904 188.307281,109.637817 
	C195.594864,117.433395 195.969360,117.445763 190.318848,126.504913 
	C187.570175,130.911713 186.876389,134.747253 189.581970,139.304138 
	C190.827957,141.402695 191.677612,143.878296 192.106918,146.289780 
	C192.940552,150.972488 196.486069,151.877167 200.178680,152.995438 
	C204.379654,154.267624 208.491150,155.835266 212.820892,158.027069 
	C213.002686,170.205200 213.005096,181.630737 213.007523,193.056274 
	C213.007523,193.056274 212.983185,192.992844 212.812592,193.137207 
	C212.419373,193.537247 212.196762,193.792938 211.974152,194.048615 
	C211.974136,194.048615 211.993713,193.983459 211.667725,193.978973 
	C210.865707,194.002029 210.389648,194.029587 209.913605,194.057129 
z"/>
<path fill="#5BB3F0" opacity="1.000000" stroke="none" 
	d="
M260.151917,174.487427 
	C260.056305,176.386322 259.958130,177.847641 259.872162,179.127258 
	C259.288574,179.457581 259.018005,179.731628 258.723755,179.759964 
	C244.000549,181.177521 243.999527,181.175232 244.000488,166.510422 
	C244.001144,156.516113 244.205475,146.515961 243.915817,136.530121 
	C243.784988,132.020294 245.458252,130.700943 249.717773,130.923721 
	C255.199829,131.210434 260.729767,130.724091 266.192566,131.157501 
	C268.049438,131.304840 270.487671,132.810043 271.423370,134.415619 
	C276.074036,142.395767 280.311981,150.616486 285.257050,159.795242 
	C286.944733,157.550262 288.222870,156.209305 289.085632,154.639984 
	C292.742523,147.988190 296.076324,141.148239 299.988495,134.654388 
	C301.027863,132.929184 303.636139,131.322205 305.642944,131.163376 
	C311.436066,130.704926 317.290558,131.070038 323.119385,130.994019 
	C325.854004,130.958359 327.011658,132.085510 327.000000,134.845184 
	C326.941589,148.670197 326.935608,162.495712 326.992554,176.320709 
	C327.004517,179.226913 325.546631,180.072449 322.948029,179.997406 
	C320.285400,179.920563 317.618256,180.016068 314.953369,179.997406 
	C308.855560,179.954712 308.327179,178.431152 309.462860,172.412582 
	C310.779327,165.436050 310.861023,158.226547 311.478729,151.118179 
	C310.796539,150.958267 310.114349,150.798355 309.432129,150.638443 
	C306.124146,156.421371 302.814911,162.203598 299.508667,167.987534 
	C297.944153,170.724518 296.383911,173.463989 294.824249,176.203766 
	C293.317841,178.849991 291.188751,179.718796 288.028656,180.177277 
	C280.679047,181.243591 276.879669,178.010147 273.824127,171.778839 
	C270.291962,164.575546 265.840393,157.823090 261.788025,150.874893 
	C261.241821,150.969650 260.695587,151.064407 260.149384,151.159164 
	C260.149384,158.789383 260.149384,166.419617 260.151917,174.487427 
z"/>
<path fill="#5BB3F0" opacity="1.000000" stroke="none" 
	d="
M891.082336,178.807968 
	C886.205933,179.207535 881.280762,179.302628 876.463745,180.073486 
	C867.864258,181.449646 862.256226,177.979858 857.670288,170.805298 
	C853.627380,164.480164 848.437256,158.885269 843.707703,153.004959 
	C842.939270,152.049530 841.931824,151.286392 839.990845,149.442703 
	C839.990845,156.480377 839.960022,162.176605 839.997253,167.872406 
	C840.076843,180.053711 840.091248,180.055313 827.923279,180.002411 
	C826.592957,179.996628 825.262756,179.957367 823.467224,179.427567 
	C823.002686,163.002731 823.003357,147.083954 823.004089,131.165176 
	C830.323486,131.108826 837.677429,130.625153 844.945007,131.211182 
	C847.763306,131.438446 851.094177,133.493439 852.968994,135.737305 
	C859.169800,143.158813 864.801453,151.055054 870.681274,158.746399 
	C871.723999,160.110413 872.909119,161.365616 874.489624,163.208832 
	C874.489624,154.334351 874.965515,146.104050 874.336182,137.959152 
	C873.849304,131.658920 873.776489,130.897064 880.182190,131.049408 
	C883.711121,131.133331 887.225647,131.825287 890.883057,133.081818 
	C891.040344,148.882996 891.061340,163.845474 891.082336,178.807968 
z"/>
<path fill="#5BB3F0" opacity="1.000000" stroke="none" 
	d="
M746.514465,150.031036 
	C746.727295,139.066040 750.830872,130.683990 762.588501,130.873810 
	C771.026428,131.010040 779.475342,130.244827 787.923157,130.093216 
	C792.528442,130.010544 797.153931,130.210327 801.747986,130.568741 
	C807.092346,130.985657 812.854858,137.092300 812.968506,142.617355 
	C813.144836,151.188583 813.246582,159.775009 812.930176,168.338364 
	C812.677063,175.187668 806.241821,180.137787 799.230957,180.157639 
	C790.121033,180.183426 781.013428,180.879333 771.902893,180.928558 
	C767.120239,180.954407 762.298584,180.455597 757.556885,179.765137 
	C751.012268,178.812164 747.432251,174.121490 746.808655,165.776154 
	C746.427612,160.675018 746.512939,155.539047 746.514465,150.031036 
M788.575745,145.200470 
	C781.992188,145.164780 775.401245,144.955551 768.831177,145.236221 
	C767.477966,145.294022 765.791809,146.927185 764.967285,148.269302 
	C762.253052,152.687805 763.164001,157.348709 764.124329,162.186035 
	C764.835083,165.766556 766.604004,166.924530 769.772400,166.936951 
	C776.842590,166.964661 783.917175,167.076706 790.979919,166.845688 
	C792.560425,166.793976 795.189209,165.754166 795.463989,164.687241 
	C796.506775,160.639023 797.262939,156.387527 797.215820,152.222305 
	C797.162598,147.502640 794.609802,144.621719 788.575745,145.200470 
z"/>
<path fill="#5BB3F0" opacity="1.000000" stroke="none" 
	d="
M733.686401,179.982376 
	C731.395142,179.997635 729.550537,179.859177 727.736328,180.034775 
	C723.319885,180.462265 720.359924,179.652878 720.611328,174.128967 
	C720.760986,170.842407 718.870850,169.376785 715.111206,169.652786 
	C708.985291,170.102493 702.802307,169.876282 696.646118,169.773285 
	C693.266052,169.716766 691.581055,171.069794 692.033569,174.505188 
	C692.628174,179.019165 690.536377,180.198074 686.298279,180.077255 
	C674.452148,179.739609 676.113159,181.200287 676.018738,170.086426 
	C675.922607,158.769516 676.120239,147.449249 675.941040,136.134384 
	C675.880005,132.277802 677.134705,130.889175 681.084351,130.922333 
	C696.226379,131.049484 711.372437,130.740082 726.513672,130.903900 
	C734.058655,130.985535 738.397766,136.674255 738.611328,145.668701 
	C738.736816,150.955139 736.356079,156.301071 734.860535,162.647400 
	C737.874695,165.468765 738.020081,170.716125 737.994263,176.064987 
	C737.981262,178.771576 736.909424,180.125214 733.686401,179.982376 
M709.389160,145.001251 
	C705.069153,145.007706 700.741882,145.170654 696.431274,144.972504 
	C692.796143,144.805405 691.943420,146.538895 691.955322,149.791092 
	C691.967407,153.075058 692.446228,155.201965 696.512451,155.041000 
	C702.484558,154.804565 708.476807,155.102066 714.452881,154.922226 
	C716.656738,154.855896 718.839355,154.080811 720.999573,153.635590 
	C719.528809,145.040207 719.528809,145.040070 711.840271,145.002213 
	C711.341797,144.999756 710.843323,145.001511 709.389160,145.001251 
z"/>
<path fill="#5BB3F0" opacity="1.000000" stroke="none" 
	d="
M355.204956,164.146790 
	C354.852661,168.227768 357.460968,167.969177 359.808411,167.975342 
	C369.128754,167.999817 378.457764,168.236572 387.766052,167.903870 
	C392.658386,167.728989 393.079437,170.158981 393.075348,173.996094 
	C393.071259,177.817932 392.680847,180.190399 387.781158,180.100922 
	C372.640564,179.824463 357.490875,179.915909 342.346619,180.061401 
	C338.593445,180.097473 336.979156,179.053894 337.039459,175.009262 
	C337.232910,162.030167 337.199982,149.045486 337.063721,136.064972 
	C337.022491,132.133957 338.585999,130.890762 342.412170,130.929413 
	C357.556274,131.082443 372.705841,131.164413 387.846832,130.898392 
	C392.926270,130.809143 393.048584,133.568451 392.931061,137.193375 
	C392.818298,140.672821 393.599854,144.268951 387.910187,144.076263 
	C378.434540,143.755371 368.937622,143.910492 359.455017,144.114960 
	C358.031769,144.145676 356.637756,145.530655 355.230225,146.289185 
	C356.623596,147.256683 357.991730,149.016541 359.414520,149.061935 
	C368.060791,149.337738 376.727051,149.443985 385.370972,149.148315 
	C389.903168,148.993286 390.271545,151.416702 389.994110,154.739502 
	C389.729950,157.903702 391.450134,162.144638 385.457947,161.999481 
	C377.141327,161.798004 368.813538,161.868057 360.495758,162.055267 
	C358.739685,162.094788 357.006287,163.143112 355.204956,164.146790 
z"/>
<path fill="#5BB3F0" opacity="1.000000" stroke="none" 
	d="
M424.465820,130.268005 
	C433.866180,130.335419 442.818787,130.296738 451.754395,130.667511 
	C456.718903,130.873520 460.837067,134.933533 462.048492,139.947784 
	C464.488617,150.047882 464.488464,150.065048 453.805511,149.981369 
	C450.760986,149.957520 447.360748,150.764191 445.978516,146.589523 
	C445.781128,145.993393 444.334167,145.479813 443.470490,145.487473 
	C436.046295,145.553284 428.621002,145.689835 421.202332,145.970734 
	C420.175171,146.009613 418.965546,146.740265 418.211334,147.512817 
	C415.121826,150.677444 416.865784,164.681534 420.931763,165.981583 
	C424.688751,167.182846 428.982635,166.750412 433.044708,166.934357 
	C435.302643,167.036606 437.574951,166.829285 439.832123,166.939148 
	C442.780334,167.082642 445.378204,167.122665 446.630463,163.507294 
	C447.019775,162.383331 449.024445,161.673111 450.423126,161.098404 
	C451.282196,160.745438 452.494751,160.729202 453.375275,161.044983 
	C456.719910,162.244415 462.754272,157.647751 463.028809,165.577316 
	C463.310303,173.708633 459.217255,180.057007 452.751770,180.391235 
	C444.331390,180.826538 435.887238,180.978607 427.454803,180.938614 
	C422.328064,180.914276 417.158844,180.608749 412.089935,179.871353 
	C405.246338,178.875778 400.850800,172.869400 400.805939,165.225082 
	C400.767914,158.742340 400.764008,152.259323 400.709991,145.776733 
	C400.644470,137.917694 407.703949,130.896286 415.594940,130.868805 
	C418.400879,130.859039 421.205658,130.521103 424.465820,130.268005 
z"/>
<path fill="#5BB3F0" opacity="1.000000" stroke="none" 
	d="
M976.261658,130.944794 
	C981.414978,130.045151 985.334351,132.357529 986.964233,136.084839 
	C988.578796,139.777176 988.160767,144.366318 988.550110,148.569916 
	C988.578491,148.876816 987.976868,149.336044 987.578247,149.573318 
	C984.860535,151.190903 975.021973,149.480331 972.757202,147.249115 
	C971.813965,146.319901 970.378540,145.360138 969.150452,145.338181 
	C962.351807,145.216690 955.547791,145.447128 948.746216,145.414581 
	C945.757202,145.400284 944.538025,146.826843 944.490356,149.634247 
	C944.417175,153.939880 943.817444,158.323563 944.474304,162.512100 
	C944.739685,164.204041 947.630859,166.563690 949.493896,166.727997 
	C955.673523,167.272964 961.935974,167.125229 968.150879,166.865051 
	C969.904785,166.791641 971.738525,165.623489 973.288330,164.587418 
	C974.634827,163.687164 975.553650,161.348038 976.797791,161.241760 
	C980.739380,160.905090 984.747437,161.273575 988.721741,161.505875 
	C989.110107,161.528595 989.573425,162.447006 989.782654,163.028549 
	C992.495178,170.568253 987.265442,179.604111 979.443909,179.840546 
	C966.359497,180.236084 953.247925,180.209625 940.161011,179.861237 
	C932.461304,179.656265 927.606689,173.246719 927.878357,165.322708 
	C928.104248,158.737091 927.794556,152.133072 928.022644,145.547623 
	C928.358887,135.836273 932.815308,131.310638 942.551514,131.089478 
	C953.646362,130.837448 964.750366,130.988403 976.261658,130.944794 
z"/>
<path fill="#5BB3F0" opacity="1.000000" stroke="none" 
	d="
M519.653442,164.532654 
	C517.799866,163.665390 516.096924,162.898773 514.377563,162.859726 
	C507.883453,162.712311 501.376465,162.991928 494.888977,162.737671 
	C490.216553,162.554565 488.891083,164.547928 488.909027,168.980011 
	C488.955719,180.515167 486.826813,182.132889 475.053864,179.791763 
	C473.859283,179.554214 472.190460,177.456024 472.172089,176.200394 
	C471.969971,162.375885 471.974335,148.546051 472.188721,134.721771 
	C472.207855,133.487076 474.001343,131.332565 475.120728,131.229248 
	C479.537018,130.821564 484.013153,131.062027 489.002014,131.062027 
	C489.002014,135.884323 489.094971,140.160461 488.970520,144.430237 
	C488.882263,147.458649 489.771759,149.082901 493.177734,149.017563 
	C500.838562,148.870636 508.504486,148.918976 516.167358,148.990021 
	C518.948853,149.015793 520.070312,147.791824 519.988220,145.077148 
	C519.902649,142.247925 519.974426,139.413284 520.009033,136.581390 
	C520.023315,135.417374 519.665466,133.895981 520.253784,133.149582 
	C523.827209,128.616241 528.831055,131.724792 533.158813,131.210495 
	C534.259399,131.079697 536.712646,133.315140 536.734253,134.496429 
	C536.989685,148.485718 536.901672,162.481247 536.902405,176.475143 
	C536.902405,176.641434 536.931091,176.829803 536.866028,176.970825 
	C534.066528,183.040421 528.733093,178.927948 524.665894,179.899033 
	C522.312317,180.460968 519.960510,179.929184 520.011536,176.452576 
	C520.067810,172.626053 519.878784,168.795944 519.653442,164.532654 
z"/>
<path fill="#5BB3F0" opacity="1.000000" stroke="none" 
	d="
M596.237671,177.931213 
	C594.468384,173.281937 591.541443,171.610367 586.864563,171.912827 
	C581.067200,172.287750 575.216309,172.221497 569.409790,171.926697 
	C565.687012,171.737671 563.734619,173.157623 562.090576,176.408676 
	C561.271545,178.028366 558.901001,179.658798 557.094055,179.830688 
	C552.177185,180.298386 547.186523,179.991348 541.260376,179.991348 
	C542.549744,176.879990 543.284912,174.393997 544.536621,172.203140 
	C551.711792,159.644409 558.903320,147.091476 566.387024,134.716553 
	C567.441833,132.972290 570.032898,131.398758 572.075623,131.164307 
	C576.672302,130.636749 581.410583,130.645370 586.010254,131.160156 
	C588.064331,131.390060 590.719604,132.893387 591.743103,134.622955 
	C599.174133,147.181015 606.290955,159.926102 613.415894,172.663116 
	C614.443237,174.499664 614.981750,176.609695 616.074646,179.444443 
	C609.095703,179.720535 602.719910,181.651688 596.237671,177.931213 
M578.703552,147.128479 
	C576.410522,151.016953 574.117432,154.905441 571.467651,159.398895 
	C577.156860,159.398895 581.277649,159.398895 586.288269,159.398895 
	C583.640747,154.775543 581.471802,150.987808 578.703552,147.128479 
z"/>
<path fill="#B8B8C0" opacity="1.000000" stroke="none" 
	d="
M320.000061,204.092346 
	C341.653442,204.092361 362.806824,204.091461 383.960205,204.092773 
	C393.852051,204.093399 394.000244,204.271667 392.488251,214.655853 
	C343.321014,214.655853 294.100128,214.655853 244.544968,214.655853 
	C244.371124,213.631729 244.059265,212.547653 244.022247,211.454285 
	C243.782181,204.362686 244.013382,204.105347 251.043015,204.099869 
	C273.862030,204.082092 296.681030,204.092667 320.000061,204.092346 
z"/>
<path fill="#B8B8C0" opacity="1.000000" stroke="none" 
	d="
M866.000000,215.012085 
	C857.875305,215.012085 850.250610,215.012085 842.703857,215.012085 
	C842.372314,214.047668 842.104248,213.602417 842.078552,213.143585 
	C841.571533,204.097244 841.577271,204.093338 850.770081,204.093033 
	C894.096375,204.091644 937.422729,204.091949 980.749023,204.092712 
	C990.636536,204.092880 990.636536,204.094849 989.634949,215.012085 
	C948.648010,215.012085 907.573975,215.012085 866.000000,215.012085 
z"/>
<path fill="#5BB3F0" opacity="1.000000" stroke="none" 
	d="
M630.981445,145.131943 
	C625.828308,145.082184 620.673340,144.927597 615.522949,145.022202 
	C612.467896,145.078323 611.083679,144.147781 610.951599,140.800018 
	C610.564209,130.987213 610.429810,130.990005 620.389099,130.989578 
	C635.020874,130.988968 649.659729,131.258041 664.280884,130.865021 
	C670.234741,130.704987 670.047607,133.888184 670.055054,138.007538 
	C670.062439,142.148560 670.202637,145.714890 664.256042,145.076935 
	C660.311951,144.653809 656.279053,145.137756 652.295044,144.982925 
	C649.014648,144.855423 647.937195,146.296768 647.976074,149.436996 
	C648.083252,158.081512 647.890625,166.730164 648.033630,175.373581 
	C648.090332,178.800842 646.859558,180.223297 643.396423,180.027893 
	C639.915222,179.831482 636.416016,179.952316 632.460571,179.427948 
	C631.997559,172.431473 632.126282,165.937836 631.957764,159.451920 
	C631.833557,154.673355 631.320984,149.904892 630.981445,145.131943 
z"/>
<path fill="#B8B8C0" opacity="1.000000" stroke="none" 
	d="
M745.203430,195.999329 
	C756.311584,193.808075 761.704651,200.302261 766.233704,208.333252 
	C766.857239,209.438950 767.939697,210.285858 769.724731,212.269226 
	C769.724731,206.330597 769.724731,201.535492 769.724731,196.377014 
	C773.673462,196.377014 776.910217,196.377014 780.577759,196.377014 
	C780.577759,205.352463 780.577759,214.367783 780.577759,223.071518 
	C766.386841,228.191315 759.103210,219.273712 752.767761,208.417877 
	C752.325256,208.792587 751.882690,209.167297 751.440186,209.542007 
	C751.440186,214.062729 751.440186,218.583450 751.440186,223.549759 
	C747.680359,223.549759 744.663696,223.549759 741.032715,223.549759 
	C741.032715,215.186340 740.916382,206.913422 741.195251,198.653839 
	C741.226440,197.730804 743.500305,196.883514 745.203430,195.999329 
z"/>
<path fill="#B8B8C0" opacity="1.000000" stroke="none" 
	d="
M417.995758,223.999313 
	C414.007599,223.983612 410.391449,224.504593 407.056427,223.762314 
	C404.849579,223.271149 402.259430,221.344284 401.308960,219.357742 
	C400.537720,217.745880 401.952454,215.088120 402.545410,212.166382 
	C397.250732,209.705139 401.398773,204.209198 401.619568,199.919449 
	C401.694580,198.461960 406.736877,196.356003 409.633545,196.128723 
	C416.492828,195.590530 423.432312,195.840897 430.328033,196.087997 
	C434.387085,196.233459 435.609528,199.813370 436.476990,202.903870 
	C436.763336,203.924118 434.831909,205.566833 433.783783,207.118484 
	C437.807648,211.921402 438.378052,214.862579 436.455353,219.072159 
	C434.553528,223.236130 430.959473,223.457626 427.469574,223.905685 
	C424.520050,224.284378 421.484650,223.993622 417.995758,223.999313 
M420.279358,205.992584 
	C421.772278,205.865631 423.265198,205.738663 425.360809,205.560440 
	C421.221954,201.800659 414.467468,202.159653 412.258606,205.993332 
	C414.794769,205.993332 417.093750,205.993332 420.279358,205.992584 
M414.974762,214.019638 
	C414.092773,214.161957 413.210785,214.304260 412.052612,214.491135 
	C415.463196,218.183380 421.814697,217.878235 423.941193,214.013214 
	C421.130615,214.013214 418.486053,214.013214 414.974762,214.019638 
z"/>
<path fill="#B8B8C0" opacity="1.000000" stroke="none" 
	d="
M456.538879,197.356842 
	C466.703339,193.661362 476.756714,194.259155 486.557465,196.591171 
	C489.050964,197.184494 491.765350,201.115509 492.455933,203.976883 
	C493.390839,207.850525 492.663910,212.188812 492.299103,216.296585 
	C491.836212,221.508652 487.907654,223.584702 483.491364,223.868912 
	C476.537079,224.316467 469.520233,224.241669 462.554077,223.897812 
	C457.872070,223.666718 454.380493,222.086777 453.688171,216.095306 
	C452.928619,209.521744 452.440979,203.369263 456.538879,197.356842 
M475.279144,215.997910 
	C479.688843,216.661621 481.741516,213.847351 481.757782,210.304016 
	C481.767273,208.228958 479.859009,204.770218 478.196808,204.345123 
	C474.600220,203.425400 470.603607,203.973541 466.778320,204.121399 
	C465.955292,204.153214 464.834229,204.836502 464.413208,205.551208 
	C461.657227,210.229584 464.959595,215.932663 470.369141,215.995789 
	C471.701874,216.011337 473.034912,215.998764 475.279144,215.997910 
z"/>
<path fill="#B8B8C0" opacity="1.000000" stroke="none" 
	d="
M717.507202,196.047607 
	C722.612549,198.021103 724.792480,201.338242 724.021912,206.558044 
	C723.709412,208.674469 723.942688,210.879410 724.005554,213.041824 
	C724.230530,220.780807 721.580017,223.022751 713.862488,223.849518 
	C707.278381,224.554855 700.554688,224.135315 693.899963,223.951553 
	C687.564331,223.776596 685.074463,220.986298 684.996155,214.601486 
	C684.943909,210.344971 684.025635,205.890015 684.979919,201.877029 
	C686.590881,195.102539 693.057495,195.369003 698.269775,195.151001 
	C704.523193,194.889420 710.820557,195.680069 717.507202,196.047607 
M705.372009,215.997604 
	C709.090637,216.045273 712.927002,216.544434 713.055542,210.884369 
	C713.197144,204.647842 712.791077,204.040039 706.493103,204.006393 
	C704.494690,203.995728 702.489075,204.113251 700.499084,203.983658 
	C696.334351,203.712479 694.957153,205.772034 694.941162,209.704681 
	C694.925110,213.651306 695.888428,216.268768 700.464111,216.005310 
	C701.791992,215.928848 703.128113,215.996338 705.372009,215.997604 
z"/>
<path fill="#B8B8C0" opacity="1.000000" stroke="none" 
	d="
M806.922852,195.903564 
	C814.241089,195.945526 821.177429,195.558243 827.988098,196.309677 
	C832.349243,196.790863 833.388611,202.819916 830.124695,206.491135 
	C834.708374,210.217972 833.458313,215.451263 832.407043,219.831360 
	C831.958374,221.700470 827.636841,223.555130 824.935242,223.787109 
	C818.326172,224.354599 811.605164,224.334610 804.994446,223.777390 
	C802.682312,223.582474 799.754395,221.599915 798.560913,219.576523 
	C797.135620,217.160110 796.888123,213.622543 802.484802,213.687881 
	C796.855652,210.016449 797.249146,204.971588 798.510925,200.368286 
	C799.430176,197.014648 802.717102,195.444229 806.922852,195.903564 
M816.416138,202.982971 
	C813.917786,203.283554 811.419434,203.584122 808.921082,203.884689 
	C808.994873,204.419983 809.068665,204.955276 809.142456,205.490570 
	C813.314941,205.490570 817.487427,205.490570 821.659912,205.490570 
	C821.734619,205.039932 821.809265,204.589279 821.883972,204.138641 
	C820.347351,203.753784 818.810730,203.368927 816.416138,202.982971 
M820.991516,215.162796 
	C816.989258,214.654373 812.987000,214.145966 808.984802,213.637543 
	C808.934326,214.233749 808.883911,214.829941 808.833435,215.426147 
	C812.546814,217.948685 816.525330,217.622803 820.991516,215.162796 
z"/>
<path fill="#5BB3F0" opacity="1.000000" stroke="none" 
	d="
M902.002808,171.890198 
	C902.004456,159.780716 902.186768,148.150574 901.916687,136.530930 
	C901.812866,132.064087 903.393494,130.796646 907.669861,130.919800 
	C919.666626,131.265289 917.862671,129.739883 917.974304,141.340622 
	C918.079834,152.301224 917.791504,163.269119 918.087524,174.222702 
	C918.214111,178.907532 916.496216,180.580826 912.059448,180.015503 
	C911.242371,179.911423 910.400513,180.004410 909.570068,180.003311 
	C902.053955,179.993271 902.053955,179.993057 902.002808,171.890198 
z"/>
<path fill="#B8B8C0" opacity="1.000000" stroke="none" 
	d="
M584.931458,223.501801 
	C577.610901,223.821960 570.635010,224.103470 563.670532,223.929779 
	C557.478210,223.775345 554.634094,219.915848 554.928528,213.533829 
	C555.187012,207.929977 554.982483,202.304794 554.982483,196.349716 
	C558.380249,196.349716 561.284363,196.349716 565.003845,196.349716 
	C565.003845,200.769608 564.672913,205.219360 565.143616,209.582611 
	C565.378601,211.760086 566.786438,215.306320 568.174316,215.572601 
	C571.765442,216.261673 575.645447,215.526230 579.390442,215.159332 
	C579.652649,215.133636 579.898376,213.468994 579.906738,212.564255 
	C579.955139,207.272125 579.930420,201.979309 579.930420,196.344711 
	C583.636047,196.344711 586.876282,196.344711 591.452637,196.344711 
	C591.452637,203.297928 591.932495,210.378738 591.169312,217.322922 
	C590.930725,219.493149 587.338318,221.294769 584.931458,223.501801 
z"/>
<path fill="#B8B8C0" opacity="1.000000" stroke="none" 
	d="
M618.955139,206.350281 
	C616.958374,205.255310 614.937012,203.979462 613.025879,204.127350 
	C608.235535,204.497986 605.267822,203.241714 605.443298,196.966415 
	C616.823608,194.814651 628.604980,196.576874 640.651123,195.970352 
	C640.651123,198.734329 640.651123,200.974655 640.651123,203.752045 
	C637.068420,203.752045 633.484863,203.752045 629.186157,203.752045 
	C629.186157,210.615021 629.186157,216.988571 629.186157,223.666290 
	C625.576477,223.666290 622.673218,223.666290 618.980713,223.666290 
	C618.980713,217.999084 618.980713,212.408310 618.955139,206.350281 
z"/>
<path fill="#B8B8C0" opacity="1.000000" stroke="none" 
	d="
M510.007538,200.247269 
	C509.437775,194.925598 512.996948,196.236053 515.584167,195.984665 
	C518.683167,195.683533 520.893982,196.546280 520.953674,200.054520 
	C521.040588,205.162827 520.975952,210.273727 520.975952,215.908234 
	C527.138916,215.908234 532.718689,215.908234 538.159607,215.908234 
	C539.813049,223.202377 539.222229,223.984009 532.515259,223.993179 
	C525.237915,224.003113 517.960571,223.995422 510.005859,223.995422 
	C510.005859,215.900620 510.005859,208.310089 510.007538,200.247269 
z"/>
<path fill="#B8B8C0" opacity="1.000000" stroke="none" 
	d="
M662.930908,224.002533 
	C660.851440,223.926422 659.231689,223.849640 657.303223,223.758240 
	C657.303223,214.579498 657.303223,205.693542 657.303223,196.398956 
	C660.568542,196.398956 663.784058,196.398956 667.425537,196.398956 
	C667.425537,205.278183 667.425537,214.161697 667.425537,223.585403 
	C666.205627,223.711319 664.798157,223.856598 662.930908,224.002533 
z"/>
<path fill="#5BB3F0" opacity="1.000000" stroke="none" 
	d="
M822.703796,131.447769 
	C823.003357,147.083954 823.002686,163.002731 823.001831,179.379211 
	C822.705200,179.270996 822.148499,178.704208 822.150269,178.139221 
	C822.199890,162.669495 822.306458,147.199936 822.703796,131.447769 
z"/>
<path fill="#7BC9FF" opacity="1.000000" stroke="none" 
	d="
M891.408569,178.553360 
	C891.061340,163.845474 891.040344,148.882996 891.046387,133.450226 
	C891.374207,133.505539 891.938721,134.031693 891.937561,134.556595 
	C891.905090,149.137405 891.815247,163.718063 891.408569,178.553360 
z"/>
<path fill="#5BB3F0" opacity="1.000000" stroke="none" 
	d="
M630.986755,145.589050 
	C631.320984,149.904892 631.833557,154.673355 631.957764,159.451920 
	C632.126282,165.937836 631.997559,172.431473 631.995544,179.379578 
	C631.663818,178.125916 631.063782,176.417206 631.046570,174.702621 
	C630.950256,165.151245 630.995361,155.598450 630.986755,145.589050 
z"/>
<path fill="#5BB3F0" opacity="1.000000" stroke="none" 
	d="
M213.305786,192.751266 
	C213.005096,181.630737 213.002686,170.205200 213.034912,158.300781 
	C213.379639,160.225006 213.956223,162.628540 213.952408,165.031143 
	C213.937927,174.169678 213.735947,183.307907 213.305786,192.751266 
z"/>
<path fill="#5BB3F0" opacity="1.000000" stroke="none" 
	d="
M210.077606,194.276047 
	C210.389648,194.029587 210.865707,194.002029 211.699432,193.991302 
	C211.451965,194.170410 210.846786,194.332672 210.077606,194.276047 
z"/>
<path fill="#5BB3F0" opacity="1.000000" stroke="none" 
	d="
M212.214493,193.938599 
	C212.196762,193.792938 212.419373,193.537247 212.845200,193.127701 
	C212.850555,193.258743 212.652695,193.543640 212.214493,193.938599 
z"/>
<path fill="#FFFFFF" opacity="1.000000" stroke="none" 
	d="
M788.946350,145.368439 
	C794.609802,144.621719 797.162598,147.502640 797.215820,152.222305 
	C797.262939,156.387527 796.506775,160.639023 795.463989,164.687241 
	C795.189209,165.754166 792.560425,166.793976 790.979919,166.845688 
	C783.917175,167.076706 776.842590,166.964661 769.772400,166.936951 
	C766.604004,166.924530 764.835083,165.766556 764.124329,162.186035 
	C763.164001,157.348709 762.253052,152.687805 764.967285,148.269302 
	C765.791809,146.927185 767.477966,145.294022 768.831177,145.236221 
	C775.401245,144.955551 781.992188,145.164780 788.946350,145.368439 
z"/>
<path fill="#FFFFFF" opacity="1.000000" stroke="none" 
	d="
M709.867004,145.001282 
	C710.843323,145.001511 711.341797,144.999756 711.840271,145.002213 
	C719.528809,145.040070 719.528809,145.040207 720.999573,153.635590 
	C718.839355,154.080811 716.656738,154.855896 714.452881,154.922226 
	C708.476807,155.102066 702.484558,154.804565 696.512451,155.041000 
	C692.446228,155.201965 691.967407,153.075058 691.955322,149.791092 
	C691.943420,146.538895 692.796143,144.805405 696.431274,144.972504 
	C700.741882,145.170654 705.069153,145.007706 709.867004,145.001282 
z"/>
<path fill="#FFFFFF" opacity="1.000000" stroke="none" 
	d="
M579.003174,147.164276 
	C581.471802,150.987808 583.640747,154.775543 586.288269,159.398895 
	C581.277649,159.398895 577.156860,159.398895 571.467651,159.398895 
	C574.117432,154.905441 576.410522,151.016953 579.003174,147.164276 
z"/>
<path fill="#FFFFFF" opacity="1.000000" stroke="none" 
	d="
M419.836029,205.992950 
	C417.093750,205.993332 414.794769,205.993332 412.258606,205.993332 
	C414.467468,202.159653 421.221954,201.800659 425.360809,205.560440 
	C423.265198,205.738663 421.772278,205.865631 419.836029,205.992950 
z"/>
<path fill="#FFFFFF" opacity="1.000000" stroke="none" 
	d="
M415.408142,214.016418 
	C418.486053,214.013214 421.130615,214.013214 423.941193,214.013214 
	C421.814697,217.878235 415.463196,218.183380 412.052612,214.491135 
	C413.210785,214.304260 414.092773,214.161957 415.408142,214.016418 
z"/>
<path fill="#FFFFFF" opacity="1.000000" stroke="none" 
	d="
M474.823486,215.998520 
	C473.034912,215.998764 471.701874,216.011337 470.369141,215.995789 
	C464.959595,215.932663 461.657227,210.229584 464.413208,205.551208 
	C464.834229,204.836502 465.955292,204.153214 466.778320,204.121399 
	C470.603607,203.973541 474.600220,203.425400 478.196808,204.345123 
	C479.859009,204.770218 481.767273,208.228958 481.757782,210.304016 
	C481.741516,213.847351 479.688843,216.661621 474.823486,215.998520 
z"/>
<path fill="#FFFFFF" opacity="1.000000" stroke="none" 
	d="
M704.916260,215.997726 
	C703.128113,215.996338 701.791992,215.928848 700.464111,216.005310 
	C695.888428,216.268768 694.925110,213.651306 694.941162,209.704681 
	C694.957153,205.772034 696.334351,203.712479 700.499084,203.983658 
	C702.489075,204.113251 704.494690,203.995728 706.493103,204.006393 
	C712.791077,204.040039 713.197144,204.647842 713.055542,210.884369 
	C712.927002,216.544434 709.090637,216.045273 704.916260,215.997726 
z"/>
<path fill="#FFFFFF" opacity="1.000000" stroke="none" 
	d="
M816.845093,202.983521 
	C818.810730,203.368927 820.347351,203.753784 821.883972,204.138641 
	C821.809265,204.589279 821.734619,205.039932 821.659912,205.490570 
	C817.487427,205.490570 813.314941,205.490570 809.142456,205.490570 
	C809.068665,204.955276 808.994873,204.419983 808.921082,203.884689 
	C811.419434,203.584122 813.917786,203.283554 816.845093,202.983521 
z"/>
<path fill="#FFFFFF" opacity="1.000000" stroke="none" 
	d="
M820.815674,215.498947 
	C816.525330,217.622803 812.546814,217.948685 808.833435,215.426147 
	C808.883911,214.829941 808.934326,214.233749 808.984802,213.637543 
	C812.987000,214.145966 816.989258,214.654373 820.815674,215.498947 
z"/>
</svg>